<svg width="18" height="18" viewBox="0 0 18 18" fill="none" xmlns="http://www.w3.org/2000/svg">
<path d="M9 0C4.04521 0 0 4.04521 0 9C0 13.9548 4.04521 18 9 18C13.9548 18 18 13.9548 18 9C18 4.04521 13.9548 0 9 0Z" fill="#68768A"/>
<path d="M3.13771 9.31948L3.55329 9.73506L4.92472 11.1065C5.04939 11.2312 5.21562 11.2312 5.3403 11.1896C5.46497 11.148 5.58965 10.9818 5.58965 10.8156V9.77662H6.37925C6.58704 9.77662 6.75328 9.61038 6.75328 9.40259V8.61299C6.75328 8.40519 6.58704 8.23896 6.37925 8.23896H5.58965V7.20001C5.58965 7.03377 5.50653 6.9091 5.3403 6.82598C5.29874 6.82598 5.25718 6.78442 5.17407 6.78442C5.09095 6.78442 4.96627 6.82598 4.88316 6.9091L3.47018 8.32208L3.0546 8.73766C2.97148 8.90389 2.97148 9.15324 3.13771 9.31948Z" fill="#161A21"/>
<path d="M7.17129 5.61817H8.21024V6.40778C8.21024 6.61557 8.37647 6.7818 8.58427 6.7818H9.41543C9.62322 6.7818 9.78945 6.61557 9.78945 6.40778V5.61817H10.8284C10.9946 5.61817 11.1193 5.53505 11.2024 5.36882C11.244 5.24414 11.244 5.07791 11.1193 4.95324L9.70634 3.54026L9.29076 3.12467C9.12452 2.95844 8.91673 2.95844 8.7505 3.12467L8.33492 3.54026L6.92194 4.95324C6.79726 5.07791 6.79726 5.24414 6.83882 5.36882C6.88038 5.53505 7.00505 5.61817 7.17129 5.61817Z" fill="#161A21"/>
<path d="M10.8285 12.439H9.78951V11.6494C9.78951 11.4416 9.62328 11.2754 9.41548 11.2754H8.58432C8.37653 11.2754 8.2103 11.4416 8.2103 11.6494V12.439H7.17134C7.00511 12.439 6.88043 12.5221 6.79732 12.6884C6.75576 12.813 6.75576 12.9793 6.88043 13.104L8.29341 14.5169L8.70899 14.9325C8.79211 15.0156 8.87523 15.0572 8.9999 15.0572C9.12458 15.0572 9.20769 15.0156 9.29081 14.9325L9.70639 14.5169L11.1194 13.104C11.244 12.9793 11.244 12.813 11.2025 12.6884C11.1194 12.5221 10.9947 12.439 10.8285 12.439Z" fill="#161A21"/>
<path d="M14.8621 8.73775L14.4466 8.32217L13.0751 6.95075C12.9505 6.82607 12.7842 6.82607 12.6596 6.86763C12.5349 6.90919 12.4102 7.07542 12.4102 7.24165V8.28061H11.6206C11.4128 8.28061 11.2466 8.44684 11.2466 8.65463V9.44424C11.2466 9.65203 11.4128 9.81826 11.6206 9.81826H12.4102V10.8572C12.4102 11.0235 12.4933 11.1481 12.6596 11.2312C12.7011 11.2312 12.7427 11.2728 12.8258 11.2728C12.9089 11.2728 13.0336 11.2312 13.1167 11.1481L14.5297 9.73515L14.9453 9.31956C15.0284 9.15333 15.0284 8.90398 14.8621 8.73775Z" fill="#161A21"/>
</svg>
