<svg width="18" height="19" viewBox="0 0 18 19" fill="none" xmlns="http://www.w3.org/2000/svg">
<path d="M9 0.0629883C4.04521 0.0629883 0 4.1082 0 9.06299C0 14.0178 4.04521 18.063 9 18.063C13.9548 18.063 18 14.0178 18 9.06299C18 4.1082 13.9548 0.0629883 9 0.0629883Z" fill="#68768A"/>
<path d="M11.9548 10.1969C12.253 10.496 12.7501 10.1969 12.7501 9.79825V5.81135C12.7501 5.51233 12.5513 5.31299 12.253 5.31299H8.17718C7.77953 5.31299 7.58071 5.81135 7.87895 6.11037L11.9548 10.1969Z" fill="#161A21"/>
<path d="M5.74705 12.8101H9.8229C10.2205 12.8101 10.4194 12.3118 10.1211 12.0127L6.04529 7.92616C5.74705 7.62714 5.25 7.92616 5.25 8.32485V12.4114C5.25 12.6108 5.44882 12.8101 5.74705 12.8101Z" fill="#161A21"/>
</svg>
