<svg width="18" height="19" viewBox="0 0 18 19" fill="none" xmlns="http://www.w3.org/2000/svg">
<path d="M15.3641 2.6992C11.8491 -0.81575 6.15117 -0.81575 2.63621 2.6992C-0.878738 6.21415 -0.878738 11.9121 2.63621 15.427C6.15117 18.942 11.8491 18.942 15.3641 15.427C18.879 11.9121 18.8783 6.21415 15.3641 2.6992ZM12.8182 11.8631C13.0997 12.1446 13.0997 12.5997 12.8182 12.8812C12.6778 13.0216 12.4935 13.0921 12.3092 13.0921C12.1249 13.0921 11.9405 13.0216 11.8001 12.8812L9.00013 10.0812L6.20012 12.8812C6.05973 13.0216 5.87541 13.0921 5.6911 13.0921C5.50678 13.0921 5.32247 13.0216 5.18207 12.8812C4.90056 12.5997 4.90056 12.1446 5.18207 11.8631L7.98208 9.06312L5.18207 6.26311C4.90056 5.9816 4.90056 5.52657 5.18207 5.24506C5.46358 4.96355 5.91861 4.96355 6.20012 5.24506L9.00013 8.04507L11.8001 5.24506C12.0817 4.96355 12.5367 4.96355 12.8182 5.24506C13.0997 5.52657 13.0997 5.9816 12.8182 6.26311L10.0182 9.06312L12.8182 11.8631Z" fill="#68768A"/>
</svg>
