<svg width="42" height="42" viewBox="0 0 42 42" fill="none" xmlns="http://www.w3.org/2000/svg">
<circle cx="21" cy="21" r="21" fill="#63667B"/>
<path d="M13.507 20.173C13.507 19.8783 13.598 19.627 13.78 19.419C13.962 19.2023 14.2307 19.094 14.586 19.094H15.99V16.026C15.99 15.2113 16.1113 14.44 16.354 13.712C16.5967 12.9753 16.965 12.334 17.459 11.788C17.953 11.2333 18.5727 10.7957 19.318 10.475C20.0633 10.1543 20.9387 9.994 21.944 9.994C22.6373 9.994 23.257 10.085 23.803 10.267C24.3577 10.4403 24.8473 10.6787 25.272 10.982C25.7053 11.2853 26.078 11.645 26.39 12.061C26.7107 12.4683 26.9837 12.9103 27.209 13.387L25.922 14.206C25.6447 14.3447 25.3977 14.414 25.181 14.414C24.8603 14.414 24.5743 14.271 24.323 13.985C24.1583 13.7943 23.9937 13.621 23.829 13.465C23.673 13.3003 23.4997 13.1617 23.309 13.049C23.127 12.9363 22.9233 12.8497 22.698 12.789C22.4813 12.7283 22.23 12.698 21.944 12.698C21.0513 12.698 20.384 12.9927 19.942 13.582C19.5 14.1627 19.279 14.973 19.279 16.013V19.094H24.596V20.368C24.596 20.576 24.5093 20.7667 24.336 20.94C24.1713 21.1133 23.9547 21.2 23.686 21.2H19.279V23.722C19.279 24.294 19.1707 24.8053 18.954 25.256C18.746 25.698 18.4557 26.1097 18.083 26.491C18.7243 26.3437 19.3613 26.27 19.994 26.27H27.612V27.622C27.612 27.778 27.5773 27.9383 27.508 28.103C27.4473 28.2677 27.3563 28.4193 27.235 28.558C27.1137 28.688 26.9663 28.7963 26.793 28.883C26.6283 28.961 26.442 29 26.234 29H13.767V26.985C14.0617 26.9157 14.3433 26.8203 14.612 26.699C14.8807 26.569 15.1147 26.4087 15.314 26.218C15.522 26.0187 15.6867 25.789 15.808 25.529C15.9293 25.2603 15.99 24.9483 15.99 24.593V21.2H13.507V20.173Z" fill="#0F0F10"/>
</svg>
