<svg width="23" height="30" viewBox="0 0 23 30" fill="none" xmlns="http://www.w3.org/2000/svg">
<path fill-rule="evenodd" clip-rule="evenodd" d="M10.5808 21.563H11.5183V24.2416H10.5808V21.563Z" fill="#D4211A"/>
<path fill-rule="evenodd" clip-rule="evenodd" d="M10.1786 24.2411V21.1607H11.9196V24.2411H15.1339V21.2946L15.4018 21.1607C19.4196 19.4196 22.0982 15.5357 22.0982 11.1161C22.0982 4.95536 17.1429 0 10.9821 0C4.95536 0 0 4.95536 0 11.1161C0 15.5357 2.54464 19.4196 6.5625 21.1607L6.83036 21.2946V24.2411H10.1786Z" fill="#D4211A"/>
<path fill-rule="evenodd" clip-rule="evenodd" d="M6.0271 25.7144H16.2057V26.2501H6.0271V25.7144Z" fill="#D4211A"/>
<path fill-rule="evenodd" clip-rule="evenodd" d="M7.23242 27.5898H14.8664V28.1256H7.23242V27.5898Z" fill="#D4211A"/>
<path fill-rule="evenodd" clip-rule="evenodd" d="M9.24125 29.4639H12.9912C12.9912 29.4639 13.1252 29.4639 13.1252 29.5978V29.8657C13.1252 29.9996 12.9912 29.9996 12.9912 29.9996H9.24125C9.10732 29.9996 8.97339 29.9996 8.97339 29.8657V29.5978C8.97339 29.4639 9.10732 29.4639 9.24125 29.4639Z" fill="#D4211A"/>
<path d="M6 15.5L7.07 14.1625C7.54678 13.5665 8.45322 13.5665 8.93 14.1625L9.15637 14.4455C9.56515 14.9564 10.3581 14.9031 10.6948 14.342L10.75 14.25C11.0897 13.6838 11.9103 13.6838 12.25 14.25V14.25C12.5897 14.8162 13.4103 14.8162 13.75 14.25L13.8052 14.158C14.1419 13.5969 14.9348 13.5436 15.3436 14.0545L16.5 15.5" stroke="#15191F" stroke-width="0.5"/>
</svg>
