<svg width="60" height="61" viewBox="0 0 60 61" fill="none" xmlns="http://www.w3.org/2000/svg">
<path d="M31.25 28.188C31.25 24.4945 30.5225 20.8373 29.1091 17.425C27.6957 14.0127 25.624 10.9122 23.0124 8.3006C20.4007 5.68895 17.3002 3.61729 13.888 2.20387C10.4757 0.790462 6.81842 0.0629883 3.125 0.0629883L0 0.0629883V13.188C0 20.6472 2.96316 27.8009 8.23761 33.0753C13.5121 38.3498 20.6658 41.3129 28.125 41.3129H31.25V28.188Z" fill="#B2FF59"/>
<path d="M54.6609 0.0629883C52.079 0.062985 49.5224 0.571528 47.137 1.55958C44.7516 2.54763 42.5842 3.99585 40.7585 5.82153C38.9329 7.64722 37.4846 9.81462 36.4966 12.2C35.5085 14.5854 35 17.142 35 19.7239V31.313H40.339C42.921 31.313 45.4776 30.8044 47.863 29.8164C50.2483 28.8283 52.4157 27.3801 54.2414 25.5544C56.0671 23.7287 57.5153 21.5613 58.5034 19.1759C59.4914 16.7906 60 14.2339 60 11.652V0.0629883H54.6609Z" fill="#B2FF59"/>
<path d="M37.5 35.0631C36.837 35.0632 36.2011 35.3266 35.7323 35.7954C35.2634 36.2642 35 36.9001 35 37.5631V51.3131C34.9989 52.3073 34.6035 53.2605 33.9004 53.9636C33.1974 54.6666 32.2442 55.062 31.25 55.0631C30.587 55.0631 29.9511 55.3265 29.4822 55.7953C29.0134 56.2642 28.75 56.9001 28.75 57.5631C28.75 58.2262 29.0134 58.862 29.4822 59.3309C29.9511 59.7997 30.587 60.0631 31.25 60.0631C33.5698 60.0604 35.7938 59.1377 37.4342 57.4973C39.0745 55.857 39.9973 53.6329 40 51.3131V37.5631C40 36.9001 39.7366 36.2642 39.2677 35.7954C38.7989 35.3266 38.163 35.0632 37.5 35.0631Z" fill="#B2FF59"/>
</svg>
