<svg width="60" height="59" viewBox="0 0 60 59" fill="none" xmlns="http://www.w3.org/2000/svg">
<path d="M17.0234 28.2486C17.0261 28.2027 17.0308 28.1573 17.0339 28.1115C17.0307 28.1572 17.0261 28.2028 17.0234 28.2486Z" fill="#414352"/>
<path d="M17.3938 32.1784H17.3947C17.3885 32.1537 17.3835 32.1286 17.3774 32.1038C17.3835 32.1286 17.3875 32.1537 17.3938 32.1784Z" fill="#414352"/>
<path d="M17.0942 27.4633C17.0986 27.4264 17.1037 27.3897 17.1083 27.3528C17.1036 27.3897 17.0986 27.4265 17.0942 27.4633Z" fill="#414352"/>
<path d="M17.2202 26.6325C17.2212 26.6273 17.222 26.6221 17.223 26.6169C17.222 26.6221 17.2212 26.6273 17.2202 26.6325Z" fill="#414352"/>
<path d="M17.1186 30.7349C17.1081 30.6561 17.0975 30.5772 17.0884 30.4979C17.0976 30.577 17.108 30.6559 17.1186 30.7349Z" fill="#414352"/>
<path d="M17.2378 31.4692C17.2251 31.4031 17.2139 31.3365 17.2021 31.27C17.2139 31.3364 17.225 31.4029 17.2378 31.4692Z" fill="#414352"/>
<path d="M17 29.008C17 29.0215 17.0012 29.0349 17.0012 29.0483C17.0012 29.0335 17.0001 29.0189 17.0001 29.004C17.0001 29.0054 17 29.0067 17 29.008Z" fill="#414352"/>
<path d="M17.0406 29.9768C17.0348 29.8997 17.0274 29.8231 17.0229 29.7455C17.0274 29.8228 17.0348 29.8997 17.0406 29.9768Z" fill="#414352"/>
<path d="M29.2215 41.9765C29.2152 41.9761 29.209 41.9754 29.2026 41.975C29.209 41.9754 29.2153 41.9761 29.2215 41.9765Z" fill="#414352"/>
<path d="M30.8905 41.9687C30.8535 41.9712 30.8168 41.9749 30.7798 41.9771C30.8167 41.9749 30.8536 41.9712 30.8905 41.9687Z" fill="#414352"/>
<path d="M36.2534 24.738H42.2828C40.9774 20.9875 38.0016 18.015 34.249 16.714V22.7373C35.0359 23.2726 35.7162 23.9525 36.2534 24.738Z" fill="#414352"/>
<path d="M25.7402 22.7484V16.719C21.9898 18.0244 19.0174 21.0001 17.7163 24.7525H23.7397C24.275 23.9658 24.9549 23.2855 25.7402 22.7484Z" fill="#414352"/>
<path d="M34.2642 35.2518V41.2812C38.0146 39.9758 40.987 37 42.2881 33.2476H36.2646C35.7293 34.0344 35.0495 34.7146 34.2642 35.2518Z" fill="#414352"/>
<path d="M23.7507 33.2622H17.7212C19.0266 37.0126 22.0025 39.985 25.7549 41.2859V35.2626C24.9682 34.7274 24.2879 34.0476 23.7507 33.2622Z" fill="#414352"/>
<path d="M27.4243 21.8911C27.4987 21.864 27.5718 21.8341 27.6469 21.8094C27.8243 21.7512 28.0059 21.7034 28.1888 21.6582C28.2639 21.6395 28.3378 21.6166 28.4135 21.6003C28.5969 21.5609 28.7844 21.5337 28.9724 21.508C29.049 21.4974 29.1245 21.4811 29.2016 21.4729C29.4315 21.4486 29.6653 21.4378 29.9008 21.4346C29.9322 21.4342 29.9631 21.4295 29.9945 21.4295C29.9957 21.4295 29.9969 21.4297 29.9981 21.4297C30.2703 21.4299 30.5415 21.4447 30.8106 21.4742C30.8167 21.4748 30.8226 21.4762 30.8287 21.4769C31.0961 21.5061 31.3585 21.5507 31.6169 21.6071C31.6183 21.6074 31.6196 21.6079 31.6211 21.6082C32.1508 21.7258 32.6677 21.9005 33.1628 22.1302V22.1301V16.3906C32.9038 16.3256 32.6432 16.2687 32.3813 16.2199C32.3799 16.2196 32.3784 16.2194 32.377 16.2191C32.1256 16.1723 31.8728 16.1338 31.6193 16.102C31.6013 16.0998 31.5834 16.0973 31.5654 16.0951C31.312 16.0644 31.0578 16.0407 30.8032 16.0249C30.7986 16.0247 30.794 16.0242 30.7893 16.0239C30.2682 15.9921 29.7456 15.9923 29.2244 16.0231C29.1875 16.0253 29.151 16.029 29.1141 16.0315C28.9015 16.0459 28.6891 16.0654 28.4772 16.0902C28.418 16.0971 28.359 16.105 28.2999 16.1128C28.1061 16.1382 27.9129 16.1682 27.7203 16.2024C27.6603 16.213 27.6 16.2231 27.5402 16.2346C27.3297 16.275 27.12 16.3211 26.9113 16.372C26.8831 16.3789 26.8544 16.3835 26.8262 16.3906V16.3917V22.1302C26.8538 22.1175 26.8829 22.109 26.9106 22.0965C27.0784 22.021 27.2504 21.9544 27.4243 21.8911Z" fill="#414352"/>
<path d="M23.0985 32.0902C23.0234 31.9231 22.957 31.7519 22.894 31.5786C22.8668 31.504 22.8368 31.4305 22.812 31.3552C22.7537 31.1776 22.7059 30.996 22.6607 30.8129C22.6421 30.7379 22.6192 30.6642 22.6029 30.5887C22.5634 30.4044 22.536 30.2162 22.5102 30.0274C22.4997 29.9516 22.4836 29.8769 22.4755 29.8008C22.4512 29.5704 22.4403 29.3363 22.4372 29.1003C22.4368 29.0692 22.4321 29.0386 22.4321 29.0075C22.4321 29.0063 22.4323 29.0051 22.4323 29.0039C22.4324 28.7316 22.4473 28.4603 22.4768 28.1912C22.4773 28.186 22.4786 28.181 22.4791 28.1758C22.5083 27.9076 22.5531 27.6442 22.6097 27.3851C22.61 27.3838 22.6104 27.3825 22.6107 27.3812C22.7283 26.8513 22.9031 26.3343 23.1328 25.8389H23.1328H17.3934C17.3287 26.0968 17.272 26.3563 17.2231 26.6169C17.2222 26.6217 17.2215 26.6265 17.2206 26.6313C17.176 26.8708 17.1395 27.1116 17.1084 27.3529C17.1038 27.3892 17.0988 27.4254 17.0945 27.4618C17.0685 27.6779 17.0492 27.8946 17.0341 28.1116C17.0311 28.156 17.0266 28.1999 17.024 28.2443C17.0091 28.4973 17.0006 28.7507 17.0005 29.0042C17.0005 29.0166 17.0014 29.0287 17.0014 29.0411C17.002 29.2762 17.0098 29.5111 17.0232 29.7456C17.0276 29.8218 17.0349 29.897 17.0406 29.9728C17.0537 30.1481 17.0691 30.3232 17.0894 30.4979C17.0984 30.5758 17.1087 30.6533 17.119 30.7308C17.1432 30.911 17.1711 31.0908 17.2029 31.2701C17.2144 31.3353 17.2254 31.4007 17.2379 31.4657C17.2791 31.6793 17.3256 31.8921 17.3776 32.1039C17.3835 32.1278 17.3883 32.1522 17.3943 32.1761H23.1328C23.1198 32.148 23.1111 32.1184 23.0985 32.0902Z" fill="#414352"/>
<path d="M32.5263 36.1285C32.4777 36.1457 32.4302 36.1656 32.3813 36.1817C31.4857 36.4757 30.5374 36.5974 29.5981 36.5477C29.5878 36.5472 29.5775 36.5466 29.5673 36.546C29.3439 36.5333 29.1211 36.5106 28.8997 36.4783C28.8741 36.4745 28.849 36.4696 28.8235 36.4654C28.6182 36.4335 28.414 36.394 28.2119 36.3452C28.1374 36.3268 28.0651 36.3035 27.9915 36.2828C27.8363 36.2403 27.681 36.198 27.5287 36.1454C27.3092 36.0685 27.0939 35.9825 26.8837 35.8869C26.8698 35.8806 26.8552 35.8761 26.8413 35.8697V35.8699V41.6093C27.1008 41.6745 27.362 41.7315 27.6243 41.7803C27.6247 41.7804 27.6251 41.7805 27.6254 41.7805C27.8781 41.8276 28.132 41.8662 28.3866 41.8982C28.4037 41.9003 28.4208 41.9026 28.438 41.9047C28.692 41.9355 28.9468 41.9593 29.2019 41.9751C29.2062 41.9754 29.2104 41.9758 29.2147 41.9761C29.7359 42.0079 30.2586 42.0077 30.7798 41.9768C30.8163 41.9747 30.8525 41.971 30.889 41.9685C31.1022 41.9541 31.3152 41.9346 31.5276 41.9096C31.5861 41.9028 31.6443 41.895 31.7025 41.8874C31.8974 41.8618 32.0918 41.8317 32.2855 41.7973C32.3445 41.7868 32.4038 41.7769 32.4626 41.7656C32.6738 41.7251 32.884 41.6789 33.0933 41.6278C33.1214 41.621 33.1499 41.6164 33.178 41.6093V41.6082V35.8697C33.1514 35.882 33.1231 35.8901 33.0964 35.9021C32.9104 35.9858 32.7198 36.0598 32.5263 36.1285Z" fill="#414352"/>
<path d="M43.0035 28.96C43.0029 28.7248 42.9951 28.4896 42.9817 28.2548C42.9774 28.1785 42.97 28.103 42.9643 28.0271C42.9512 27.8516 42.9357 27.6763 42.9155 27.5014C42.9065 27.4241 42.8963 27.3473 42.886 27.2704C42.8618 27.0896 42.8338 26.9092 42.8019 26.7293C42.7905 26.6645 42.7796 26.5995 42.7671 26.535C42.7256 26.3196 42.6787 26.1051 42.6262 25.8916C42.6207 25.8692 42.6171 25.8465 42.6115 25.8241H42.6106H36.8721C36.8848 25.8516 36.8933 25.8806 36.9057 25.9082C36.9815 26.0768 37.0485 26.2494 37.112 26.4242C37.1387 26.4977 37.1683 26.57 37.1927 26.6442C37.2514 26.823 37.2995 27.0059 37.345 27.1902C37.3633 27.2639 37.3859 27.3365 37.4019 27.4108C37.4416 27.5957 37.4691 27.7846 37.4949 27.9742C37.5053 28.0495 37.5214 28.1237 37.5294 28.1994C37.5539 28.4306 37.5648 28.6655 37.5678 28.9023C37.5682 28.9326 37.5728 28.9624 37.5728 28.9927C37.5728 28.9939 37.5726 28.995 37.5726 28.9961C37.5725 29.2683 37.5576 29.5393 37.5282 29.8083C37.5274 29.8158 37.5256 29.823 37.5248 29.8305C37.4956 30.0964 37.4514 30.3575 37.3953 30.6145C37.3948 30.6169 37.394 30.6193 37.3934 30.6217C37.3351 30.8875 37.2612 31.1469 37.1758 31.4014C37.1758 31.4015 37.1758 31.4015 37.1758 31.4015C37.0885 31.6594 36.9872 31.9129 36.8721 32.161H36.8722H42.6115C42.6761 31.9038 42.7327 31.645 42.7814 31.385C42.7826 31.3786 42.7837 31.3723 42.7848 31.3659C42.8291 31.1279 42.8653 30.8887 42.8963 30.649C42.901 30.6117 42.906 30.5746 42.9105 30.5372C42.9363 30.3227 42.9554 30.1076 42.9705 29.8923C42.9736 29.8463 42.9783 29.8008 42.9809 29.7546C42.9959 29.502 43.0043 29.2491 43.0044 28.9959C43.0044 28.9948 43.0045 28.9938 43.0045 28.9927C43.0045 28.9818 43.0035 28.9709 43.0035 28.96Z" fill="#414352"/>
</svg>
