<svg width="30" height="30" viewBox="0 0 30 30" fill="none" xmlns="http://www.w3.org/2000/svg">
<path d="M0.0234375 14.2484C0.026074 14.2025 0.0307648 14.1571 0.0338807 14.1113C0.0306963 14.157 0.0261424 14.2026 0.0234375 14.2484Z" fill="#63667B"/>
<path d="M0.393774 18.1786H0.394698C0.388501 18.1539 0.383536 18.1288 0.377441 18.104C0.383502 18.1288 0.387542 18.1539 0.393774 18.1786Z" fill="#63667B"/>
<path d="M0.0942383 13.4635C0.0986103 13.4266 0.103655 13.3899 0.108329 13.353C0.103588 13.3899 0.0986439 13.4266 0.0942383 13.4635Z" fill="#63667B"/>
<path d="M0.220215 12.6322C0.221179 12.6271 0.222036 12.6219 0.223 12.6167C0.222036 12.6219 0.221179 12.627 0.220215 12.6322Z" fill="#63667B"/>
<path d="M0.118587 16.7351C0.108057 16.6562 0.0975259 16.5774 0.0883789 16.498C0.0975596 16.5772 0.107989 16.6561 0.118587 16.7351Z" fill="#63667B"/>
<path d="M0.237825 17.4692C0.225066 17.4031 0.213894 17.3365 0.202148 17.27C0.213928 17.3364 0.225033 17.4029 0.237825 17.4692Z" fill="#63667B"/>
<path d="M0 15.0079C0 15.0214 0.00119262 15.0348 0.00123235 15.0482C0.00119262 15.0334 0.00011926 15.0188 0.00011926 15.0039C0.00011926 15.0053 0 15.0066 0 15.0079Z" fill="#63667B"/>
<path d="M0.0406013 15.9769C0.0348298 15.8998 0.0273707 15.8231 0.0229492 15.7456C0.0273707 15.8228 0.0348298 15.8998 0.0406013 15.9769Z" fill="#63667B"/>
<path d="M12.2215 27.9765C12.2152 27.9762 12.209 27.9755 12.2026 27.9751C12.209 27.9755 12.2153 27.9761 12.2215 27.9765Z" fill="#63667B"/>
<path d="M13.8905 27.9688C13.8535 27.9713 13.8168 27.975 13.7798 27.9772C13.8167 27.975 13.8536 27.9713 13.8905 27.9688Z" fill="#63667B"/>
<path d="M15 30C23.2843 30 30 23.2843 30 15C30 6.71573 23.2843 0 15 0C6.71573 0 0 6.71573 0 15C0 23.2843 6.71573 30 15 30Z" fill="#63667B"/>
<path d="M10.6348 10.4999C10.9874 9.49738 11.6835 8.65204 12.5997 8.11358C13.5159 7.57512 14.5931 7.37829 15.6405 7.55795C16.688 7.73761 17.638 8.28216 18.3224 9.09517C19.0068 9.90817 19.3813 10.9372 19.3798 11.9999C19.3798 14.9999 14.8798 16.4999 14.8798 16.4999" stroke="#0F0F10" stroke-width="1.75" stroke-linecap="round" stroke-linejoin="round"/>
<path d="M15 22.5H15.015" stroke="#0F0F10" stroke-width="1.75" stroke-linecap="round" stroke-linejoin="round"/>
</svg>
