<svg width="42" height="42" viewBox="0 0 42 42" fill="none" xmlns="http://www.w3.org/2000/svg">
<mask id="mask0" mask-type="alpha" maskUnits="userSpaceOnUse" x="0" y="0" width="42" height="42">
<circle cx="21" cy="21" r="21" fill="white"/>
</mask>
<g mask="url(#mask0)">
<path d="M21 44C8.29745 44 -2 33.7025 -2 21C-2 8.29745 8.29745 -2 21 -2C33.7025 -2 44 8.29745 44 21C44 33.7025 33.7025 44 21 44Z" fill="#F0F0F0"/>
<path d="M39.2458 6.99713C41.0525 9.34771 42.4148 12.057 43.208 15.0001H31.2428L39.2458 6.99713Z" fill="#0052B4"/>
<path d="M-1.20722 15.0002C-0.413988 12.0571 0.948404 9.34784 2.75498 6.99725L10.7578 15.0002H-1.20722Z" fill="#0052B4"/>
<path d="M43.208 27.0001C42.4147 29.9432 41.0524 32.6525 39.2458 35.003L31.2431 27.0001H43.208Z" fill="#0052B4"/>
<path d="M6.99757 2.75465C9.34815 0.94798 12.0573 -0.414321 15.0005 -1.20764V10.7575L6.99757 2.75465Z" fill="#0052B4"/>
<path d="M35.0034 39.2454C32.6528 41.0521 29.9436 42.4144 27.0005 43.2077V31.2427L35.0034 39.2454Z" fill="#0052B4"/>
<path d="M27.0006 -1.20764C29.9437 -0.414321 32.6529 0.947979 35.0034 2.75456L27.0006 10.7574V-1.20764Z" fill="#0052B4"/>
<path d="M15.0005 43.2077C12.0574 42.4144 9.34815 41.0521 6.99765 39.2455L15.0005 31.2427V43.2077Z" fill="#0052B4"/>
<path d="M10.7578 27.0001L2.75498 35.003C0.948404 32.6526 -0.413988 29.9432 -1.20722 27.0001H10.7578Z" fill="#0052B4"/>
<path d="M-1.80531 18H17.9998H17.9999V-1.80531C18.982 -1.93316 19.9832 -2 21 -2C22.0169 -2 23.018 -1.93316 24 -1.80531V17.9998V17.9999H43.8053C43.9332 18.982 44 19.9832 44 21C44 22.0169 43.9332 23.018 43.8053 24H24.0002H24.0001V43.8053C23.018 43.9332 22.0169 44 21 44C19.9832 44 18.982 43.9332 18 43.8053V24.0002V24.0001H-1.80531C-1.93316 23.018 -2 22.0169 -2 21C-2 19.9832 -1.93316 18.982 -1.80531 18Z" fill="#D80027"/>
<path d="M15 27.0002L4.73661 37.2635C4.26457 36.7917 3.81427 36.2984 3.38464 35.787L12.1715 27.0001H15V27.0002Z" fill="#D80027"/>
<path d="M27.0002 27.0001H27.0004L37.2637 37.2634C36.7918 37.7355 36.2985 38.1858 35.7871 38.6154L27.0002 29.8283V27.0001Z" fill="#D80027"/>
<path d="M26.9999 15.0002V15L37.2633 4.73651C37.7353 5.20837 38.1856 5.7017 38.6152 6.21309L29.8282 15.0001H26.9999V15.0002Z" fill="#D80027"/>
<path d="M15 15.0002L4.73652 4.73658C5.20838 4.26454 5.70171 3.81425 6.2131 3.3847L15 12.1717V15.0002Z" fill="#D80027"/>
</g>
</svg>
