<svg width="50" height="71" viewBox="0 0 50 71" fill="none" xmlns="http://www.w3.org/2000/svg">
<path d="M42.4824 53.484C42.4824 54.1468 42.2191 54.7824 41.7505 55.251C41.2818 55.7197 40.6462 55.983 39.9835 55.983H9.99592C9.33315 55.983 8.69753 55.7197 8.22889 55.251C7.76024 54.7824 7.49696 54.1468 7.49696 53.484C7.49696 52.8212 7.76024 52.1856 8.22889 51.717C8.69753 51.2483 9.33315 50.985 9.99592 50.985H39.9835C40.6462 50.985 41.2818 51.2483 41.7505 51.717C42.2191 52.1856 42.4824 52.8212 42.4824 53.484ZM37.4845 58.4819H12.4949C11.8321 58.4819 11.1965 58.7452 10.7278 59.2138C10.2592 59.6825 9.99592 60.3181 9.99592 60.9809C9.99592 61.6436 10.2592 62.2793 10.7278 62.7479C11.1965 63.2166 11.8321 63.4798 12.4949 63.4798H37.4845C38.1473 63.4798 38.7829 63.2166 39.2515 62.7479C39.7202 62.2793 39.9835 61.6436 39.9835 60.9809C39.9835 60.3181 39.7202 59.6825 39.2515 59.2138C38.7829 58.7452 38.1473 58.4819 37.4845 58.4819ZM21.2412 70.9767H28.7381C29.3945 70.9769 30.0445 70.8477 30.651 70.5966C31.2574 70.3455 31.8085 69.9774 32.2726 69.5133C32.7367 69.0491 33.1049 68.4981 33.356 67.8916C33.6071 67.2852 33.7362 66.6352 33.736 65.9788H16.2433C16.2431 66.6352 16.3723 67.2852 16.6234 67.8916C16.8745 68.4981 17.2426 69.0491 17.7068 69.5133C18.1709 69.9774 18.722 70.3455 19.3284 70.5966C19.9349 70.8477 20.5849 70.9769 21.2412 70.9767ZM24.9897 34.7418C24.7426 34.7418 24.501 34.8151 24.2955 34.9524C24.09 35.0897 23.9299 35.2848 23.8353 35.5131C23.7407 35.7414 23.716 35.9927 23.7642 36.235C23.8124 36.4774 23.9314 36.7 24.1062 36.8748C24.2809 37.0495 24.5035 37.1685 24.7459 37.2167C24.9883 37.2649 25.2395 37.2402 25.4678 37.1456C25.6962 37.0511 25.8913 36.8909 26.0286 36.6854C26.1659 36.48 26.2392 36.2384 26.2392 35.9913C26.2387 35.66 26.107 35.3425 25.8727 35.1082C25.6385 34.874 25.3209 34.7422 24.9897 34.7418ZM7.54349e-05 25.9954C-0.00496045 21.6698 1.11289 17.417 3.24428 13.653C5.37566 9.88895 8.44759 6.74262 12.1595 4.52178C15.8715 2.30094 20.0964 1.08166 24.4208 0.983192C28.7453 0.884728 33.0213 1.91046 36.8305 3.96005C40.6397 6.00964 43.8516 9.01289 46.1521 12.676C48.4526 16.3391 49.7628 20.5367 49.9547 24.858C50.1465 29.1793 49.2134 33.4765 47.2466 37.329C45.2797 41.1816 42.3465 44.4577 38.734 46.8368V48.4861H26.2392V39.5094C27.0728 39.2147 27.7755 38.6347 28.2229 37.872C28.6703 37.1093 28.8337 36.213 28.6841 35.3415C28.5346 34.47 28.0818 33.6794 27.4058 33.1095C26.7297 32.5395 25.8739 32.2269 24.9897 32.2269C24.1054 32.2269 23.2497 32.5395 22.5736 33.1095C21.8976 33.6794 21.4448 34.47 21.2952 35.3415C21.1457 36.213 21.3091 37.1093 21.7565 37.872C22.2039 38.6347 22.9065 39.2147 23.7402 39.5094V48.4861H11.2454V46.8368C7.78314 44.5747 4.94096 41.4833 2.97708 37.8436C1.01321 34.2039 -0.0101195 30.1311 7.54349e-05 25.9954ZM31.691 30.3607C30.8683 29.3847 29.8423 28.6001 28.6848 28.0619C27.5273 27.5238 26.2662 27.2449 24.9897 27.2449C23.7132 27.2449 22.4521 27.5238 21.2945 28.0619C20.137 28.6001 19.111 29.3847 18.2883 30.3607C18.0741 30.6136 17.9691 30.9413 17.9965 31.2716C18.0239 31.6019 18.1813 31.9078 18.4342 32.1221C18.6871 32.3363 19.0148 32.4413 19.3451 32.4139C19.6754 32.3865 19.9813 32.2291 20.1956 31.9762C20.7835 31.277 21.5173 30.7149 22.3455 30.3293C23.1737 29.9437 24.0761 29.7439 24.9897 29.7439C25.9032 29.7439 26.8057 29.9437 27.6339 30.3293C28.462 30.7149 29.1958 31.277 29.7838 31.9762C29.8899 32.1014 30.0196 32.2045 30.1655 32.2796C30.3114 32.3547 30.4707 32.4004 30.6343 32.4139C30.7978 32.4275 30.9624 32.4086 31.1187 32.3586C31.275 32.3085 31.4199 32.2281 31.5451 32.1221C31.6704 32.016 31.7735 31.8863 31.8486 31.7404C31.9237 31.5944 31.9693 31.4352 31.9829 31.2716C31.9964 31.108 31.9776 30.9434 31.9275 30.7871C31.8775 30.6309 31.7971 30.486 31.691 30.3607ZM35.0954 26.6891C33.8105 25.2891 32.2488 24.1712 30.5091 23.4065C28.7695 22.6419 26.89 22.247 24.9897 22.247C23.0894 22.247 21.2099 22.6419 19.4702 23.4065C17.7306 24.1712 16.1689 25.2891 14.884 26.6891C14.7723 26.81 14.6855 26.9518 14.6287 27.1063C14.572 27.2608 14.5463 27.4251 14.5532 27.5895C14.5601 27.754 14.5994 27.9155 14.6689 28.0647C14.7384 28.214 14.8367 28.348 14.9582 28.4591C15.0796 28.5702 15.2218 28.6563 15.3766 28.7123C15.5315 28.7682 15.6958 28.7931 15.8602 28.7853C16.0247 28.7776 16.186 28.7375 16.3348 28.6672C16.4837 28.5969 16.6172 28.498 16.7277 28.3759C17.7785 27.2319 19.0555 26.3186 20.4777 25.6938C21.8999 25.069 23.4363 24.7464 24.9897 24.7464C26.5431 24.7464 28.0795 25.069 29.5017 25.6938C30.9239 26.3186 32.2008 27.2319 33.2516 28.3759C33.3621 28.498 33.4956 28.5969 33.6445 28.6672C33.7934 28.7375 33.9547 28.7776 34.1191 28.7853C34.2836 28.7931 34.4479 28.7682 34.6027 28.7123C34.7575 28.6563 34.8998 28.5702 35.0212 28.4591C35.1427 28.348 35.241 28.214 35.3105 28.0647C35.38 27.9155 35.4193 27.754 35.4262 27.5895C35.4331 27.4251 35.4074 27.2608 35.3506 27.1063C35.2938 26.9518 35.2071 26.81 35.0954 26.6891ZM11.5078 24.7997C11.7475 25.0281 12.068 25.1521 12.3991 25.1444C12.7301 25.1367 13.0446 24.9978 13.2733 24.7584C14.7862 23.1747 16.6045 21.9141 18.6182 21.0529C20.632 20.1917 22.7995 19.7476 24.9897 19.7476C27.1799 19.7476 29.3474 20.1917 31.3611 21.0529C33.3749 21.9141 35.1932 23.1747 36.7061 24.7584C36.8184 24.8809 36.954 24.9798 37.105 25.0492C37.2561 25.1186 37.4194 25.1572 37.5855 25.1627C37.7516 25.1682 37.9172 25.1405 38.0724 25.0813C38.2277 25.022 38.3696 24.9324 38.4898 24.8176C38.61 24.7028 38.7061 24.5652 38.7725 24.4128C38.8388 24.2605 38.8741 24.0964 38.8763 23.9302C38.8785 23.764 38.8475 23.5991 38.7851 23.445C38.7227 23.291 38.6302 23.1509 38.5131 23.033C36.767 21.2048 34.6683 19.7497 32.3439 18.7555C30.0196 17.7613 27.5178 17.2487 24.9897 17.2487C22.4616 17.2487 19.9598 17.7613 17.6354 18.7555C15.3111 19.7497 13.2124 21.2048 11.4663 23.033C11.353 23.1517 11.2642 23.2916 11.205 23.4446C11.1458 23.5977 11.1173 23.7609 11.1211 23.9249C11.125 24.089 11.1611 24.2507 11.2275 24.4008C11.2938 24.5508 11.3891 24.6864 11.5078 24.7997Z" fill="#FFD740"/>
</svg>
