<svg width="20" height="17" viewBox="0 0 20 17" fill="none" xmlns="http://www.w3.org/2000/svg">
<path d="M13.8399 3.84215C13.8415 1.7206 12.1216 0.000763695 9.99931 0C7.87701 0 6.15717 1.71984 6.15869 3.84215C6.15869 5.96293 9.99931 10.0319 9.99931 10.0319C9.99931 10.0319 13.8415 5.96293 13.8399 3.84215ZM8.02898 4.1629C8.02898 3.07387 8.91181 2.1918 9.99931 2.19104C11.0883 2.19104 11.9712 3.07234 11.9712 4.1629C11.9696 5.2504 11.0883 6.13171 10.0008 6.13171C8.91029 6.13323 8.02745 5.25193 8.02898 4.1629Z" fill="#DADCE7"/>
<path d="M5.61545 4.96582L2.83254 6.0938L0 15.3635L4.59362 14.2195L6.07748 6.02812C5.88962 5.66766 5.73229 5.31101 5.61545 4.96582Z" fill="#DADCE7"/>
<path d="M17.1675 6.09303L14.3854 4.96582C14.2686 5.31101 14.1112 5.66766 13.9226 6.02888L15.4065 14.2195L20.0001 15.3635L17.1675 6.09303Z" fill="#DADCE7"/>
<path d="M10.5549 10.556L9.99889 11.144L9.44292 10.556C9.19243 10.2887 7.75974 8.74372 6.66842 7.04297L5.35181 14.3057L9.99889 16.7923L14.6444 14.3057L13.3286 7.0445C12.238 8.74372 10.8054 10.2894 10.5549 10.556Z" fill="#DADCE7"/>
</svg>
