<svg width="26" height="32" viewBox="0 0 26 32" fill="none" xmlns="http://www.w3.org/2000/svg">
<path d="M23.4 0H2.6C1.16406 0 0 0.89543 0 2V6C0 7.10457 1.16406 8 2.6 8H23.4C24.8359 8 26 7.10457 26 6V2C26 0.89543 24.8359 0 23.4 0Z" fill="#414352"/>
<path d="M5.2002 4H5.2132" stroke="#111419" stroke-width="1.5" stroke-linecap="round" stroke-linejoin="round"/>
<path d="M23.4 12H2.6C1.16406 12 0 12.8954 0 14V18C0 19.1046 1.16406 20 2.6 20H23.4C24.8359 20 26 19.1046 26 18V14C26 12.8954 24.8359 12 23.4 12Z" fill="#414352"/>
<path d="M5.2002 16H5.2132" stroke="#111419" stroke-width="1.5" stroke-linecap="round" stroke-linejoin="round"/>
<path d="M23.4 24H2.6C1.16406 24 0 24.8954 0 26V30C0 31.1046 1.16406 32 2.6 32H23.4C24.8359 32 26 31.1046 26 30V26C26 24.8954 24.8359 24 23.4 24Z" fill="#414352"/>
<path d="M5.2002 28H5.2132" stroke="#111419" stroke-width="1.5" stroke-linecap="round" stroke-linejoin="round"/>
</svg>
