<svg width="27" height="29" viewBox="0 0 27 29" fill="none" xmlns="http://www.w3.org/2000/svg">
<path d="M1 0V28H27" stroke="#414352" stroke-width="1.5"/>
<path d="M4 17.5V24.5C4 24.7761 4.22386 25 4.5 25H7.5C7.77614 25 8 24.7761 8 24.5V17.5C8 17.2239 7.77614 17 7.5 17H4.5C4.22386 17 4 17.2239 4 17.5Z" fill="#414352"/>
<path d="M12 12.5V24.5C12 24.7761 12.2239 25 12.5 25H15.5C15.7761 25 16 24.7761 16 24.5V12.5C16 12.2239 15.7761 12 15.5 12H12.5C12.2239 12 12 12.2239 12 12.5Z" fill="#414352"/>
<path d="M20 7.5V24.5C20 24.7761 20.2239 25 20.5 25H23.5C23.7761 25 24 24.7761 24 24.5V7.5C24 7.22386 23.7761 7 23.5 7H20.5C20.2239 7 20 7.22386 20 7.5Z" fill="#414352"/>
</svg>
