<svg width="27" height="34" viewBox="0 0 27 34" fill="none" xmlns="http://www.w3.org/2000/svg">
<path d="M16.25 1H3.25C2.38805 1 1.5614 1.34241 0.951903 1.9519C0.34241 2.5614 0 3.38805 0 4.25V30.25C0 31.112 0.34241 31.9386 0.951903 32.5481C1.5614 33.1576 2.38805 33.5 3.25 33.5H22.75C23.612 33.5 24.4386 33.1576 25.0481 32.5481C25.6576 31.9386 26 31.112 26 30.25V10.75L16.25 1Z" fill="#414352"/>
<path d="M16.25 1V10.75H26" stroke="#111419" stroke-width="1.5" stroke-linecap="round" stroke-linejoin="round"/>
<path d="M19.5 18.875H6.5" stroke="#111419" stroke-width="1.5" stroke-linecap="round" stroke-linejoin="round"/>
<path d="M19.5 25.375H6.5" stroke="#111419" stroke-width="1.5" stroke-linecap="round" stroke-linejoin="round"/>
<path d="M9.75 12.375H8.125H6.5" stroke="#111419" stroke-width="1.5" stroke-linecap="round" stroke-linejoin="round"/>
</svg>
