<svg width="26" height="33" viewBox="0 0 26 33" fill="none" xmlns="http://www.w3.org/2000/svg">
<path d="M19.5 3.25H22.75C23.612 3.25 24.4386 3.59241 25.0481 4.2019C25.6576 4.8114 26 5.63805 26 6.5V29.25C26 30.112 25.6576 30.9386 25.0481 31.5481C24.4386 32.1576 23.612 32.5 22.75 32.5H3.25C2.38805 32.5 1.5614 32.1576 0.951903 31.5481C0.34241 30.9386 0 30.112 0 29.25V6.5C0 5.63805 0.34241 4.8114 0.951903 4.2019C1.5614 3.59241 2.38805 3.25 3.25 3.25H6.5" fill="#414352"/>
<path d="M17.875 0H8.125C7.22754 0 6.5 0.727537 6.5 1.625V4.875C6.5 5.77246 7.22754 6.5 8.125 6.5H17.875C18.7725 6.5 19.5 5.77246 19.5 4.875V1.625C19.5 0.727537 18.7725 0 17.875 0Z" fill="#414352"/>
<path d="M19.5 19.5H6.5" stroke="#111419" stroke-width="1.5" stroke-linecap="round" stroke-linejoin="round"/>
<path d="M19.5 26H6.5" stroke="#111419" stroke-width="1.5" stroke-linecap="round" stroke-linejoin="round"/>
<path d="M9.75 13H8.125H6.5" stroke="#111419" stroke-width="1.5" stroke-linecap="round" stroke-linejoin="round"/>
</svg>
