<svg width="40" height="30" viewBox="0 0 40 30" fill="none" xmlns="http://www.w3.org/2000/svg">
<path d="M30.0048 19.0312C28.5077 17.4535 27.8589 15.8265 27.8589 13.805V11.537C27.8589 8.72673 26.3119 6.16295 23.8666 4.78245V3.84568C23.8666 1.72563 22.1199 0 19.9741 0C17.8282 0 16.0816 1.72563 16.0816 3.84568V4.83175C13.5864 6.26156 12.0892 8.92395 12.0892 11.7836V13.805C12.0892 15.8265 11.4405 17.4535 9.94336 19.0312C8.29653 19.1298 6.99902 20.461 6.99902 22.1373V22.9262C6.99902 24.6518 8.39634 26.0323 10.143 26.0323H15.5326C15.832 28.4975 18.0278 30.2231 20.523 29.9766C22.619 29.7301 24.2658 28.103 24.5153 26.0323H29.8551C31.6017 26.0323 32.999 24.6518 32.999 22.9262V22.1373C32.9491 20.461 31.6516 19.1298 30.0048 19.0312Z" fill="#63667B"/>
<mask id="path-2-inside-1" fill="white">
<path d="M3.9244 25.367C4.00085 25.3062 4.01294 25.1956 3.95143 25.12C3.95 25.1183 3.94858 25.1165 3.94716 25.1151C3.43051 24.5042 3.10801 23.6538 3.10801 22.7119C3.10801 21.7701 3.43087 20.9168 3.9468 20.3091C4.01116 20.2357 4.00263 20.1247 3.92831 20.0614C3.89524 20.0333 3.85293 20.0179 3.8092 20.0186C3.75693 20.0196 3.7075 20.0432 3.67444 20.0832C3.10019 20.7595 2.75244 21.6907 2.75244 22.7119C2.75244 23.7331 3.10054 24.662 3.67408 25.3403C3.73595 25.4158 3.8476 25.4278 3.9244 25.367Z"/>
</mask>
<path d="M3.9244 25.367C4.00085 25.3062 4.01294 25.1956 3.95143 25.12C3.95 25.1183 3.94858 25.1165 3.94716 25.1151C3.43051 24.5042 3.10801 23.6538 3.10801 22.7119C3.10801 21.7701 3.43087 20.9168 3.9468 20.3091C4.01116 20.2357 4.00263 20.1247 3.92831 20.0614C3.89524 20.0333 3.85293 20.0179 3.8092 20.0186C3.75693 20.0196 3.7075 20.0432 3.67444 20.0832C3.10019 20.7595 2.75244 21.6907 2.75244 22.7119C2.75244 23.7331 3.10054 24.662 3.67408 25.3403C3.73595 25.4158 3.8476 25.4278 3.9244 25.367Z" fill="#63667B"/>
<path d="M3.9244 25.367L5.78597 27.7196L5.79127 27.7154L3.9244 25.367ZM3.95143 25.12L1.61993 27.008L1.62531 27.0146L3.95143 25.12ZM3.94716 25.1151L1.6565 27.0524L1.7432 27.1549L1.83872 27.2492L3.94716 25.1151ZM3.9468 20.3091L1.69084 18.3316L1.67517 18.3494L1.65979 18.3676L3.9468 20.3091ZM3.92831 20.0614L5.87243 17.7766L5.87108 17.7755L3.92831 20.0614ZM3.8092 20.0186L3.76101 17.0189L3.74872 17.0192L3.8092 20.0186ZM3.67444 20.0832L5.96118 22.0251L5.97457 22.0093L5.98773 21.9934L3.67444 20.0832ZM3.67408 25.3403L5.99484 23.4392L5.98005 23.4212L5.96499 23.4034L3.67408 25.3403ZM5.79127 27.7154C7.17056 26.6189 7.39814 24.6014 6.27754 23.2255L1.62531 27.0146C0.627734 25.7897 0.831143 23.9936 2.05753 23.0186L5.79127 27.7154ZM6.28291 23.2321C6.28287 23.2321 6.28241 23.2315 6.28189 23.2309C6.28133 23.2302 6.28047 23.2291 6.27943 23.2278C6.27739 23.2253 6.27411 23.2213 6.27008 23.2164C6.26229 23.2069 6.24904 23.1908 6.23232 23.1712C6.20202 23.1357 6.14015 23.0645 6.0556 22.981L1.83872 27.2492C1.75559 27.1671 1.69514 27.0975 1.66627 27.0637C1.63814 27.0307 1.61484 27.0016 1.61994 27.0079L6.28291 23.2321ZM6.23781 23.1779C6.20117 23.1346 6.10801 22.9792 6.10801 22.7119H0.108012C0.108012 24.3283 0.659855 25.8739 1.6565 27.0524L6.23781 23.1779ZM6.10801 22.7119C6.10801 22.4414 6.20339 22.2865 6.23381 22.2506L1.65979 18.3676C0.658352 19.5472 0.108012 21.0988 0.108012 22.7119H6.10801ZM6.20277 22.2866C7.3788 20.945 7.21235 18.9167 5.87243 17.7766L1.9842 22.3463C0.792902 21.3326 0.643523 19.5263 1.69084 18.3316L6.20277 22.2866ZM5.87108 17.7755C5.29106 17.2825 4.54353 17.0064 3.76101 17.019L3.85738 23.0182C3.16233 23.0294 2.49943 22.7841 1.98555 22.3474L5.87108 17.7755ZM3.74872 17.0192C2.83987 17.0375 1.96149 17.446 1.36114 18.1731L5.98773 21.9934C5.45352 22.6403 4.67399 23.0018 3.86967 23.018L3.74872 17.0192ZM1.38769 18.1414C0.327372 19.39 -0.247559 21.0199 -0.247559 22.7119H5.75244C5.75244 22.3615 5.87301 22.1289 5.96118 22.0251L1.38769 18.1414ZM-0.247559 22.7119C-0.247559 24.4075 0.329788 26.0314 1.38317 27.2772L5.96499 23.4034C5.8713 23.2926 5.75244 23.0588 5.75244 22.7119H-0.247559ZM1.35332 27.2414C2.4568 28.5885 4.4306 28.7921 5.78596 27.7196L2.06284 23.0144C3.2646 22.0635 5.0151 22.2432 5.99484 23.4392L1.35332 27.2414Z" fill="#63667B" mask="url(#path-2-inside-1)"/>
<mask id="path-4-inside-2" fill="white">
<path d="M1.98053 27.5773C2.05591 27.5151 2.06622 27.4045 2.00328 27.33C2.00257 27.3289 2.00186 27.3282 2.0008 27.3272C0.986353 26.1486 0.355571 24.5161 0.355571 22.7115C0.355571 20.9038 0.986353 19.2713 2.0008 18.0963C2.06551 18.0232 2.05804 17.9122 1.98444 17.8483C1.95173 17.8198 1.90941 17.8043 1.86568 17.8047C1.81341 17.805 1.76363 17.8286 1.73021 17.8683C0.65745 19.1108 0 20.823 0 22.7115C0 24.5969 0.657805 26.3095 1.73021 27.5548C1.79279 27.6293 1.90515 27.6391 1.98053 27.5773Z"/>
</mask>
<path d="M1.98053 27.5773C2.05591 27.5151 2.06622 27.4045 2.00328 27.33C2.00257 27.3289 2.00186 27.3282 2.0008 27.3272C0.986353 26.1486 0.355571 24.5161 0.355571 22.7115C0.355571 20.9038 0.986353 19.2713 2.0008 18.0963C2.06551 18.0232 2.05804 17.9122 1.98444 17.8483C1.95173 17.8198 1.90941 17.8043 1.86568 17.8047C1.81341 17.805 1.76363 17.8286 1.73021 17.8683C0.65745 19.1108 0 20.823 0 22.7115C0 24.5969 0.657805 26.3095 1.73021 27.5548C1.79279 27.6293 1.90515 27.6391 1.98053 27.5773Z" fill="#63667B"/>
<path d="M1.98053 27.5773L3.88305 29.8969L3.88948 29.8916L1.98053 27.5773ZM2.00328 27.33L-0.483508 29.008L-0.392784 29.1425L-0.288094 29.2664L2.00328 27.33ZM2.0008 27.3272L-0.27294 29.2842L-0.19387 29.3761L-0.107647 29.4613L2.0008 27.3272ZM2.0008 18.0963L-0.245033 16.1072L-0.257631 16.1215L-0.270048 16.1358L2.0008 18.0963ZM1.98444 17.8483L0.0155468 20.1118L0.0170862 20.1131L1.98444 17.8483ZM1.86568 17.8047L1.88584 20.8046L1.88977 20.8046L1.86568 17.8047ZM1.73021 17.8683L4.00097 19.8288L4.01311 19.8147L4.02507 19.8005L1.73021 17.8683ZM1.73021 27.5548L4.02698 25.6248L4.01532 25.611L4.00348 25.5972L1.73021 27.5548ZM3.88948 29.8916C5.24327 28.7749 5.44483 26.7546 4.29466 25.3936L-0.288094 29.2664C-1.31239 28.0543 -1.13145 26.2553 0.071572 25.263L3.88948 29.8916ZM4.49008 25.6519C4.39587 25.5123 4.30157 25.3978 4.21905 25.3073C4.18234 25.2671 4.15188 25.2359 4.13488 25.2187C4.12615 25.2099 4.11912 25.2029 4.11526 25.199C4.11324 25.197 4.11162 25.1954 4.11069 25.1945C4.11021 25.194 4.10982 25.1936 4.1096 25.1934C4.10948 25.1933 4.10938 25.1932 4.10933 25.1931C4.1093 25.1931 4.10927 25.1931 4.10926 25.1931C4.10923 25.193 4.10926 25.1931 4.10924 25.1931L-0.107647 29.4613C-0.0823459 29.4863 -0.293145 29.2901 -0.483508 29.008L4.49008 25.6519ZM4.27453 25.3701C3.74525 24.7552 3.35557 23.8237 3.35557 22.7115H-2.64443C-2.64443 25.2085 -1.77254 27.542 -0.27294 29.2842L4.27453 25.3701ZM3.35557 22.7115C3.35557 21.5946 3.74617 20.6654 4.27164 20.0567L-0.270048 16.1358C-1.77346 17.8773 -2.64443 20.213 -2.64443 22.7115H3.35557ZM4.24662 20.0853C5.42068 18.7597 5.28092 16.738 3.95179 15.5834L0.0170862 20.1131C-1.16484 19.0864 -1.28966 17.2867 -0.245033 16.1072L4.24662 20.0853ZM3.95333 15.5847C3.35961 15.0683 2.60555 14.7987 1.84158 14.8048L1.88977 20.8046C1.21328 20.81 0.543843 20.5713 0.0155473 20.1118L3.95333 15.5847ZM1.84552 14.8048C0.912043 14.811 0.0321325 15.2272 -0.564659 15.936L4.02507 19.8005C3.49513 20.4299 2.71478 20.7991 1.88584 20.8046L1.84552 14.8048ZM-0.540561 15.9078C-2.10256 17.7169 -3 20.1325 -3 22.7115H3C3 21.5135 3.41746 20.5047 4.00097 19.8288L-0.540561 15.9078ZM-3 22.7115C-3 25.289 -2.10128 27.7029 -0.543071 29.5124L4.00348 25.5972C3.41689 24.916 3 23.9048 3 22.7115H-3ZM-0.56657 29.4848C0.566114 30.8327 2.55324 30.9876 3.88304 29.8969L0.0780123 25.2577C1.25706 24.2907 3.01946 24.4258 4.02698 25.6248L-0.56657 29.4848Z" fill="#63667B" mask="url(#path-4-inside-2)"/>
<mask id="path-6-inside-3" fill="white">
<path d="M36.0613 25.3662C36.1356 25.4298 36.2477 25.4221 36.312 25.3486C36.3134 25.3469 36.3149 25.3455 36.3163 25.3437C36.8898 24.6654 37.2408 23.7366 37.2408 22.7153C37.2408 21.6941 36.8898 20.7625 36.3159 20.0866C36.2818 20.0452 36.2302 20.0213 36.1758 20.022C36.0777 20.0234 35.9991 20.1028 36.0002 20.2001C36.0009 20.2415 36.0162 20.2812 36.0436 20.3125C36.5598 20.9202 36.8852 21.7735 36.8852 22.7153C36.8852 23.6572 36.5602 24.5073 36.0436 25.1185C35.9792 25.1916 35.987 25.3026 36.0613 25.3662Z"/>
</mask>
<path d="M36.0613 25.3662C36.1356 25.4298 36.2477 25.4221 36.312 25.3486C36.3134 25.3469 36.3149 25.3455 36.3163 25.3437C36.8898 24.6654 37.2408 23.7366 37.2408 22.7153C37.2408 21.6941 36.8898 20.7625 36.3159 20.0866C36.2818 20.0452 36.2302 20.0213 36.1758 20.022C36.0777 20.0234 35.9991 20.1028 36.0002 20.2001C36.0009 20.2415 36.0162 20.2812 36.0436 20.3125C36.5598 20.9202 36.8852 21.7735 36.8852 22.7153C36.8852 23.6572 36.5602 24.5073 36.0436 25.1185C35.9792 25.1916 35.987 25.3026 36.0613 25.3662Z" fill="#63667B"/>
<path d="M36.312 25.3486L38.568 27.3262L38.6066 27.2821L38.6435 27.2365L36.312 25.3486ZM36.3163 25.3437L34.0254 23.4068L34.0048 23.4311L33.9848 23.4558L36.3163 25.3437ZM36.3159 20.0866L34.0001 21.9937L34.0144 22.0111L34.0291 22.0284L36.3159 20.0866ZM36.1758 20.022L36.1371 17.0222L36.1329 17.0223L36.1758 20.022ZM36.0002 20.2001L33.0004 20.233L33.0005 20.2423L33.0006 20.2516L36.0002 20.2001ZM36.0436 20.3125L38.3299 18.3702L38.3153 18.353L38.3005 18.3361L36.0436 20.3125ZM36.0436 25.1185L38.2948 27.1014L38.315 27.0785L38.3348 27.0551L36.0436 25.1185ZM34.111 27.6457C35.4248 28.7698 37.4131 28.6436 38.568 27.3262L34.056 23.3711C35.0822 22.2005 36.8465 22.0897 38.0117 23.0867L34.111 27.6457ZM38.6435 27.2365C38.6132 27.274 38.5874 27.3039 38.5703 27.3235C38.5618 27.3332 38.5548 27.341 38.5506 27.3458C38.5484 27.3482 38.5467 27.3501 38.5457 27.3512C38.5448 27.3523 38.544 27.3531 38.5442 27.3529C38.5442 27.3529 38.5445 27.3526 38.5448 27.3522C38.5451 27.3519 38.5456 27.3513 38.5462 27.3506C38.5474 27.3493 38.5493 27.3472 38.5516 27.3446C38.5562 27.3394 38.5635 27.3312 38.5724 27.3211C38.5902 27.3007 38.6167 27.27 38.6478 27.2316L33.9848 23.4558C34.0151 23.4184 34.0409 23.3884 34.058 23.3688C34.0665 23.3591 34.0735 23.3513 34.0777 23.3466C34.0799 23.3442 34.0816 23.3422 34.0826 23.3411C34.0835 23.3401 34.0843 23.3392 34.0841 23.3395C34.0841 23.3395 34.0838 23.3398 34.0835 23.3401C34.0832 23.3405 34.0827 23.341 34.0821 23.3417C34.0809 23.343 34.079 23.3452 34.0767 23.3478C34.0721 23.3529 34.0648 23.3611 34.0559 23.3712C34.0381 23.3916 34.0116 23.4224 33.9805 23.4607L38.6435 27.2365ZM38.6072 27.2807C39.6568 26.0393 40.2408 24.4171 40.2408 22.7153H34.2408C34.2408 23.056 34.1229 23.2914 34.0254 23.4068L38.6072 27.2807ZM40.2408 22.7153C40.2408 21.0169 39.6586 19.3884 38.6028 18.1449L34.0291 22.0284C34.121 22.1366 34.2408 22.3714 34.2408 22.7153H40.2408ZM38.6318 18.1796C38.0141 17.4295 37.0935 17.0099 36.1371 17.0222L36.2146 23.0217C35.367 23.0327 34.5495 22.6609 34.0001 21.9937L38.6318 18.1796ZM36.1329 17.0223C34.4174 17.0469 32.9808 18.4476 33.0004 20.233L39 20.1672C39.0174 21.7579 37.738 22.9999 36.2188 23.0217L36.1329 17.0223ZM33.0006 20.2516C33.0135 21.0019 33.2916 21.7237 33.7866 22.2889L38.3005 18.3361C38.7407 18.8388 38.9883 19.4812 38.9997 20.1486L33.0006 20.2516ZM33.7572 22.2548C33.791 22.2946 33.8852 22.4508 33.8852 22.7153H39.8852C39.8852 21.0963 39.3287 19.5459 38.3299 18.3702L33.7572 22.2548ZM33.8852 22.7153C33.8852 22.9763 33.7935 23.1333 33.7523 23.1819L38.3348 27.0551C39.3269 25.8813 39.8852 24.338 39.8852 22.7153H33.8852ZM33.7923 23.1356C32.6187 24.4681 32.7683 26.4969 34.111 27.6457L38.0117 23.0867C39.2057 24.1083 39.3397 25.9152 38.2948 27.1014L33.7923 23.1356Z" fill="#63667B" mask="url(#path-6-inside-3)"/>
<mask id="path-8-inside-4" fill="white">
<path d="M38.0051 27.5791C38.0787 27.6431 38.191 27.636 38.2561 27.5633C38.2575 27.5616 38.2589 27.5601 38.2604 27.5584C39.3296 26.3131 39.9902 24.6009 39.9902 22.7155C39.9902 20.8269 39.3296 19.1151 38.26 17.8726C38.2255 17.8311 38.1736 17.8076 38.1195 17.8086C38.0214 17.8104 37.9432 17.8905 37.9453 17.9878C37.946 18.0292 37.9617 18.0689 37.9894 18.1002C39.001 19.2753 39.6346 20.9077 39.6346 22.7155C39.6346 24.5201 39.001 26.1529 37.9891 27.3311C37.9243 27.4038 37.9315 27.5148 38.0051 27.5791Z"/>
</mask>
<path d="M38.0051 27.5791C38.0787 27.6431 38.191 27.636 38.2561 27.5633C38.2575 27.5616 38.2589 27.5601 38.2604 27.5584C39.3296 26.3131 39.9902 24.6009 39.9902 22.7155C39.9902 20.8269 39.3296 19.1151 38.26 17.8726C38.2255 17.8311 38.1736 17.8076 38.1195 17.8086C38.0214 17.8104 37.9432 17.8905 37.9453 17.9878C37.946 18.0292 37.9617 18.0689 37.9894 18.1002C39.001 19.2753 39.6346 20.9077 39.6346 22.7155C39.6346 24.5201 39.001 26.1529 37.9891 27.3311C37.9243 27.4038 37.9315 27.5148 38.0051 27.5791Z" fill="#63667B"/>
<path d="M38.0051 27.5791L36.0316 29.8386L36.0377 29.844L38.0051 27.5791ZM38.2561 27.5633L40.4917 29.5638L40.541 29.5087L40.5876 29.4512L38.2561 27.5633ZM38.2604 27.5584L35.9842 25.6042L35.9561 25.6369L35.9289 25.6705L38.2604 27.5584ZM38.26 17.8726L35.9539 19.7914L35.9699 19.8107L35.9863 19.8297L38.26 17.8726ZM38.1195 17.8086L38.1732 20.8082L38.178 20.8081L38.1195 17.8086ZM37.9453 17.9878L40.9449 17.9363L40.9448 17.9292L40.9446 17.922L37.9453 17.9878ZM37.9894 18.1002L40.263 16.1429L40.2484 16.126L40.2337 16.1094L37.9894 18.1002ZM37.9891 27.3311L40.2301 29.3255L40.2477 29.3058L40.2649 29.2858L37.9891 27.3311ZM36.0377 29.844C37.3489 30.983 39.3331 30.8586 40.4917 29.5638L36.0205 25.5628C37.0489 24.4135 38.8084 24.3032 39.9724 25.3143L36.0377 29.844ZM40.5876 29.4512C40.5572 29.4887 40.5315 29.5186 40.5143 29.5382C40.5058 29.5479 40.4989 29.5557 40.4946 29.5604C40.4925 29.5629 40.4908 29.5648 40.4897 29.5659C40.4888 29.5669 40.4881 29.5678 40.4883 29.5675C40.4883 29.5675 40.4886 29.5672 40.4889 29.5669C40.4892 29.5666 40.4897 29.566 40.4903 29.5653C40.4915 29.564 40.4934 29.5619 40.4957 29.5593C40.5003 29.5541 40.5076 29.5459 40.5165 29.5358C40.5343 29.5154 40.5608 29.4846 40.5918 29.4463L35.9289 25.6705C35.9592 25.633 35.985 25.6031 36.0021 25.5835C36.0106 25.5738 36.0176 25.566 36.0218 25.5613C36.0239 25.5588 36.0257 25.5569 36.0267 25.5558C36.0276 25.5548 36.0284 25.5539 36.0282 25.5542C36.0282 25.5542 36.0279 25.5545 36.0276 25.5548C36.0273 25.5551 36.0268 25.5557 36.0262 25.5564C36.025 25.5577 36.0231 25.5598 36.0207 25.5624C36.0161 25.5676 36.0088 25.5758 36 25.5859C35.9821 25.6063 35.9556 25.6371 35.9246 25.6754L40.5876 29.4512ZM40.5365 29.5126C42.0867 27.7071 42.9902 25.2962 42.9902 22.7155H36.9902C36.9902 23.9055 36.5724 24.919 35.9842 25.6042L40.5365 29.5126ZM42.9902 22.7155C42.9902 20.1327 42.0873 17.7203 40.5337 15.9154L35.9863 19.8297C36.5718 20.5098 36.9902 21.5211 36.9902 22.7155H42.9902ZM40.5661 15.9538C39.9432 15.2051 39.0182 14.7905 38.0611 14.8092L38.178 20.8081C37.329 20.8246 36.5078 20.4571 35.9539 19.7914L40.5661 15.9538ZM38.0659 14.8091C36.344 14.8399 34.9067 16.2577 34.946 18.0535L40.9446 17.922C40.9797 19.5233 39.6988 20.7808 38.1732 20.8081L38.0659 14.8091ZM34.9458 18.0392C34.959 18.8086 35.2503 19.5332 35.7452 20.091L40.2337 16.1094C40.673 16.6047 40.9331 17.2499 40.9449 17.9363L34.9458 18.0392ZM35.7158 20.0575C36.2432 20.67 36.6346 21.6019 36.6346 22.7155H42.6346C42.6346 20.2136 41.7588 17.8805 40.263 16.1429L35.7158 20.0575ZM36.6346 22.7155C36.6346 23.8246 36.244 24.7585 35.7132 25.3765L40.2649 29.2858C41.758 27.5473 42.6346 25.2156 42.6346 22.7155H36.6346ZM35.748 25.3367C34.569 26.6615 34.7081 28.6827 36.0316 29.8386L39.9785 25.3196C41.1548 26.347 41.2797 28.1462 40.2301 29.3255L35.748 25.3367Z" fill="#63667B" mask="url(#path-8-inside-4)"/>
<ellipse cx="28" cy="8.7423" rx="5" ry="4.79015" fill="#FF5D5D"/>
<ellipse cx="28" cy="8.68228" rx="7" ry="6.70621" fill="#FF5D5D" fill-opacity="0.5"/>
</svg>
