<svg width="23" height="30" viewBox="0 0 23 30" fill="none" xmlns="http://www.w3.org/2000/svg">
<path fill-rule="evenodd" clip-rule="evenodd" d="M10.5808 21.563H11.5183V24.2416H10.5808V21.563Z" fill="#9FDA3A" fill-opacity="0.6"/>
<path fill-rule="evenodd" clip-rule="evenodd" d="M10.1786 24.2411V21.1607H11.9196V24.2411H15.1339V21.2946L15.4018 21.1607C19.4196 19.4196 22.0982 15.5357 22.0982 11.1161C22.0982 4.95536 17.1429 0 10.9821 0C4.95536 0 0 4.95536 0 11.1161C0 15.5357 2.54464 19.4196 6.5625 21.1607L6.83036 21.2946V24.2411H10.1786ZM7.63393 12.4554L14.4643 7.5L10.3125 11.5179L14.0625 11.25L7.76786 16.875L11.5179 12.3214L7.63393 12.4554Z" fill="#9FDA3A" fill-opacity="0.6"/>
<path fill-rule="evenodd" clip-rule="evenodd" d="M6.0271 25.7144H16.2057V26.2501H6.0271V25.7144Z" fill="#9FDA3A" fill-opacity="0.6"/>
<path fill-rule="evenodd" clip-rule="evenodd" d="M7.23242 27.5898H14.8664V28.1256H7.23242V27.5898Z" fill="#9FDA3A" fill-opacity="0.6"/>
<path fill-rule="evenodd" clip-rule="evenodd" d="M9.24125 29.4639H12.9912C12.9912 29.4639 13.1252 29.4639 13.1252 29.5978V29.8657C13.1252 29.9996 12.9912 29.9996 12.9912 29.9996H9.24125C9.10732 29.9996 8.97339 29.9996 8.97339 29.8657V29.5978C8.97339 29.4639 9.10732 29.4639 9.24125 29.4639Z" fill="#9FDA3A" fill-opacity="0.6"/>
</svg>
