<svg width="29" height="30" viewBox="0 0 29 30" fill="none" xmlns="http://www.w3.org/2000/svg">
<path fill-rule="evenodd" clip-rule="evenodd" d="M13.8867 23.3223H14.6288V25.4424H13.8867V23.3223Z" fill="#9FDA3A"/>
<path fill-rule="evenodd" clip-rule="evenodd" d="M13.5687 25.4422V23.004H14.9468V25.4422H17.491V23.11L17.703 23.004C20.8832 21.6259 23.0034 18.5517 23.0034 15.0535C23.0034 10.1771 19.0811 6.25488 14.2048 6.25488C9.43447 6.25488 5.51221 10.1771 5.51221 15.0535C5.51221 18.5517 7.52634 21.6259 10.7066 23.004L10.9186 23.11V25.4422H13.5687ZM11.5546 16.1135L16.961 12.1913L13.6748 15.3715L16.6429 15.1595L11.6606 19.6118L14.6288 16.0075L11.5546 16.1135Z" fill="#9FDA3A"/>
<path d="M16.9608 12.1919L11.5544 16.1142L14.6286 16.0081L11.6604 19.6124L16.6428 15.1601L13.6746 15.3721L16.9608 12.1919Z" fill="#15191F"/>
<path fill-rule="evenodd" clip-rule="evenodd" d="M10.2825 26.6084H18.339V27.0324H10.2825V26.6084Z" fill="#9FDA3A"/>
<path fill-rule="evenodd" clip-rule="evenodd" d="M11.2366 28.0923H17.279V28.5163H11.2366V28.0923Z" fill="#9FDA3A"/>
<path fill-rule="evenodd" clip-rule="evenodd" d="M12.8265 29.5767H15.7947C15.7947 29.5767 15.9007 29.5767 15.9007 29.6827V29.8947C15.9007 30.0007 15.7947 30.0007 15.7947 30.0007H12.8265C12.7205 30.0007 12.6145 30.0007 12.6145 29.8947V29.6827C12.6145 29.5767 12.7205 29.5767 12.8265 29.5767Z" fill="#9FDA3A"/>
<path fill-rule="evenodd" clip-rule="evenodd" d="M13.9927 0.000488281H14.4167V4.13476C14.4167 4.24077 14.4167 4.24077 14.4167 4.24077H13.9927C13.9927 4.24077 13.9927 4.24077 13.9927 4.13476V0.000488281Z" fill="#9FDA3A"/>
<path fill-rule="evenodd" clip-rule="evenodd" d="M5.30005 2.96885L7.73821 6.36108L8.05623 6.14906C8.16224 6.14906 8.16224 6.14906 8.05623 6.04305L5.61807 2.75684L5.30005 2.96885Z" fill="#9FDA3A"/>
<path fill-rule="evenodd" clip-rule="evenodd" d="M-0.000244141 10.4953L3.92202 11.7674C4.02802 11.7674 4.02802 11.7674 4.02802 11.7674L4.13403 11.4494C4.13403 11.3434 4.13403 11.3434 4.13403 11.3434L0.105763 10.0713L-0.000244141 10.4953Z" fill="#9FDA3A"/>
<path fill-rule="evenodd" clip-rule="evenodd" d="M0.105763 19.7176L4.13403 18.4455V18.3395L4.02802 18.0215C4.02802 18.0215 4.02802 18.0215 3.92202 18.0215L-0.000244141 19.2936L0.105763 19.7176Z" fill="#9FDA3A"/>
<path fill-rule="evenodd" clip-rule="evenodd" d="M28.4097 19.2936L24.4874 18.0215L24.2754 18.3395C24.2754 18.3395 24.2754 18.4455 24.3814 18.4455L28.3037 19.7176L28.4097 19.2936Z" fill="#9FDA3A"/>
<path fill-rule="evenodd" clip-rule="evenodd" d="M28.3037 10.0713L24.3814 11.3434C24.2754 11.3434 24.2754 11.3434 24.2754 11.4494L24.4874 11.7674L28.4097 10.4953L28.3037 10.0713Z" fill="#9FDA3A"/>
<path fill-rule="evenodd" clip-rule="evenodd" d="M22.7912 2.75684L20.353 6.04305C20.353 6.14906 20.353 6.14906 20.353 6.14906L20.671 6.36108L23.1092 2.96885L22.7912 2.75684Z" fill="#9FDA3A"/>
</svg>
