<svg width="37" height="54" viewBox="0 0 37 54" fill="none" xmlns="http://www.w3.org/2000/svg">
<g filter="url(#filter0_f)">
<path fill-rule="evenodd" clip-rule="evenodd" d="M17.887 47.3213H18.629V49.4414H17.887V47.3213Z" fill="#9FDA3A"/>
<path fill-rule="evenodd" clip-rule="evenodd" d="M17.5692 29.1868V26.7486H18.9473V29.1868H21.4915V26.8546L21.7035 26.7486C24.8837 25.3705 27.0039 22.2963 27.0039 18.7981C27.0039 13.9218 23.0816 9.99951 18.2053 9.99951C13.435 9.99951 9.5127 13.9218 9.5127 18.7981C9.5127 22.2963 11.5268 25.3705 14.707 26.7486L14.9191 26.8546V29.1868H17.5692ZM15.5551 19.8582L20.9615 15.9359L17.6752 19.1161L20.6434 18.9041L15.6611 23.3564L18.6293 19.7522L15.5551 19.8582Z" fill="#9FDA3A"/>
<path fill-rule="evenodd" clip-rule="evenodd" d="M14.2822 30.6079H22.3388V31.0319H14.2822V30.6079Z" fill="#9FDA3A"/>
<path fill-rule="evenodd" clip-rule="evenodd" d="M15.2363 32.0923H21.2787V32.5163H15.2363V32.0923Z" fill="#9FDA3A"/>
<path fill-rule="evenodd" clip-rule="evenodd" d="M16.8272 33.5757H19.7954C19.7954 33.5757 19.9015 33.5757 19.9015 33.6817V33.8937C19.9015 33.9997 19.7954 33.9997 19.7954 33.9997H16.8272C16.7212 33.9997 16.6152 33.9997 16.6152 33.8937V33.6817C16.6152 33.5757 16.7212 33.5757 16.8272 33.5757Z" fill="#9FDA3A"/>
<path fill-rule="evenodd" clip-rule="evenodd" d="M17.9932 3.99951H18.4172V8.13379C18.4172 8.23979 18.4172 8.23979 18.4172 8.23979H17.9932C17.9932 8.23979 17.9932 8.23979 17.9932 8.13379V3.99951Z" fill="#9FDA3A"/>
<path fill-rule="evenodd" clip-rule="evenodd" d="M9.30078 6.96836L11.7389 10.3606L12.057 10.1486C12.163 10.1486 12.163 10.1486 12.057 10.0426L9.6188 6.75635L9.30078 6.96836Z" fill="#9FDA3A"/>
<path fill-rule="evenodd" clip-rule="evenodd" d="M4 14.4948L7.92226 15.7669C8.02827 15.7669 8.02827 15.7669 8.02827 15.7669L8.13428 15.4489C8.13428 15.3429 8.13428 15.3429 8.13428 15.3429L4.10601 14.0708L4 14.4948Z" fill="#9FDA3A"/>
<path fill-rule="evenodd" clip-rule="evenodd" d="M4.10601 23.7171L8.13428 22.445V22.339L8.02827 22.021C8.02827 22.021 8.02827 22.021 7.92226 22.021L4 23.2931L4.10601 23.7171Z" fill="#9FDA3A"/>
<path fill-rule="evenodd" clip-rule="evenodd" d="M32.4097 23.2931L28.4874 22.021L28.2754 22.339C28.2754 22.339 28.2754 22.445 28.3814 22.445L32.3037 23.7171L32.4097 23.2931Z" fill="#9FDA3A"/>
<path fill-rule="evenodd" clip-rule="evenodd" d="M32.3037 14.0708L28.3814 15.3429C28.2754 15.3429 28.2754 15.3429 28.2754 15.4489L28.4874 15.7669L32.4097 14.4948L32.3037 14.0708Z" fill="#9FDA3A"/>
<path fill-rule="evenodd" clip-rule="evenodd" d="M26.7917 6.75635L24.3535 10.0426C24.3535 10.1486 24.3535 10.1486 24.3535 10.1486L24.6715 10.3606L27.1097 6.96836L26.7917 6.75635Z" fill="#9FDA3A"/>
</g>
<path fill-rule="evenodd" clip-rule="evenodd" d="M17.887 27.3218H18.629V29.4419H17.887V27.3218Z" fill="#9FDA3A"/>
<path fill-rule="evenodd" clip-rule="evenodd" d="M17.569 29.4417V27.0035H18.9471V29.4417H21.4912V27.1095L21.7033 27.0035C24.8835 25.6254 27.0036 22.5512 27.0036 19.053C27.0036 14.1767 23.0814 10.2544 18.205 10.2544C13.4347 10.2544 9.51245 14.1767 9.51245 19.053C9.51245 22.5512 11.5266 25.6254 14.7068 27.0035L14.9188 27.1095V29.4417H17.569ZM15.5549 20.1131L20.9612 16.1908L17.675 19.371L20.6432 19.159L15.6609 23.6113L18.6291 20.007L15.5549 20.1131Z" fill="#9FDA3A"/>
<path d="M20.961 16.1914L15.5547 20.1137L18.6289 20.0077L15.6607 23.6119L20.643 19.1596L17.6748 19.3716L20.961 16.1914Z" fill="#15191F"/>
<path fill-rule="evenodd" clip-rule="evenodd" d="M14.2827 30.6079H22.3393V31.0319H14.2827V30.6079Z" fill="#9FDA3A"/>
<path fill-rule="evenodd" clip-rule="evenodd" d="M15.2368 32.0918H21.2792V32.5158H15.2368V32.0918Z" fill="#9FDA3A"/>
<path fill-rule="evenodd" clip-rule="evenodd" d="M16.8268 33.5762H19.795C19.795 33.5762 19.901 33.5762 19.901 33.6822V33.8942C19.901 34.0002 19.795 34.0002 19.795 34.0002H16.8268C16.7208 34.0002 16.6147 34.0002 16.6147 33.8942V33.6822C16.6147 33.5762 16.7208 33.5762 16.8268 33.5762Z" fill="#9FDA3A"/>
<path fill-rule="evenodd" clip-rule="evenodd" d="M17.9929 4H18.4169V8.13428C18.4169 8.24028 18.4169 8.24028 18.4169 8.24028H17.9929C17.9929 8.24028 17.9929 8.24028 17.9929 8.13428V4Z" fill="#9FDA3A"/>
<path fill-rule="evenodd" clip-rule="evenodd" d="M9.30029 6.96836L11.7385 10.3606L12.0565 10.1486C12.1625 10.1486 12.1625 10.1486 12.0565 10.0426L9.61831 6.75635L9.30029 6.96836Z" fill="#9FDA3A"/>
<path fill-rule="evenodd" clip-rule="evenodd" d="M4 14.4948L7.92226 15.7669C8.02827 15.7669 8.02827 15.7669 8.02827 15.7669L8.13428 15.4489C8.13428 15.3429 8.13428 15.3429 8.13428 15.3429L4.10601 14.0708L4 14.4948Z" fill="#9FDA3A"/>
<path fill-rule="evenodd" clip-rule="evenodd" d="M4.10601 23.7171L8.13428 22.445V22.339L8.02827 22.021C8.02827 22.021 8.02827 22.021 7.92226 22.021L4 23.2931L4.10601 23.7171Z" fill="#9FDA3A"/>
<path fill-rule="evenodd" clip-rule="evenodd" d="M32.4099 23.2931L28.4876 22.021L28.2756 22.339C28.2756 22.339 28.2756 22.445 28.3816 22.445L32.3039 23.7171L32.4099 23.2931Z" fill="#9FDA3A"/>
<path fill-rule="evenodd" clip-rule="evenodd" d="M32.3039 14.0708L28.3816 15.3429C28.2756 15.3429 28.2756 15.3429 28.2756 15.4489L28.4876 15.7669L32.4099 14.4948L32.3039 14.0708Z" fill="#9FDA3A"/>
<path fill-rule="evenodd" clip-rule="evenodd" d="M26.7914 6.75635L24.3533 10.0426C24.3533 10.1486 24.3533 10.1486 24.3533 10.1486L24.6713 10.3606L27.1095 6.96836L26.7914 6.75635Z" fill="#9FDA3A"/>
<defs>
<filter id="filter0_f" x="0" y="-0.000488281" width="36.4097" height="53.4419" filterUnits="userSpaceOnUse" color-interpolation-filters="sRGB">
<feFlood flood-opacity="0" result="BackgroundImageFix"/>
<feBlend mode="normal" in="SourceGraphic" in2="BackgroundImageFix" result="shape"/>
<feGaussianBlur stdDeviation="2" result="effect1_foregroundBlur"/>
</filter>
</defs>
</svg>
