<svg width="60" height="59" viewBox="0 0 60 59" fill="none" xmlns="http://www.w3.org/2000/svg">
<path d="M22.85 27.7293H37.15C40.4 27.7293 43 25.0577 43 21.8647C43 18.6717 40.335 16 37.15 16H22.85C19.6 16 17 18.6717 17 21.8647C17 25.0577 19.6 27.7293 22.85 27.7293ZM40.4 21.7995C40.4 23.6241 38.905 25.0577 37.15 25.0577H27.725C28.375 24.1454 28.7 22.9724 28.7 21.7995C28.7 20.6266 28.31 19.4536 27.725 18.5414H37.15C38.905 18.5414 40.4 20.0401 40.4 21.7995ZM22.85 18.5414C24.67 18.5414 26.1 20.0401 26.1 21.7995C26.1 23.5589 24.605 25.0577 22.85 25.0577C21.03 25.0577 19.6 23.5589 19.6 21.7995C19.6 20.0401 21.03 18.5414 22.85 18.5414Z" fill="#414352"/>
<path d="M37.15 30.2706H22.85C19.6 30.2706 17 32.9422 17 36.1352C17 39.3934 19.665 41.9999 22.85 41.9999H37.15C40.4 41.9999 43 39.3282 43 36.1352C43 32.9422 40.335 30.2706 37.15 30.2706ZM19.535 36.1352C19.535 34.3107 21.03 32.8771 22.785 32.8771H32.21C31.56 33.7894 31.235 34.9623 31.235 36.1352C31.235 37.3733 31.625 38.4811 32.21 39.3934H22.85C21.03 39.4585 19.535 37.9598 19.535 36.1352ZM37.15 39.4585C35.33 39.4585 33.9 37.9598 33.9 36.2004C33.9 34.441 35.395 32.9422 37.15 32.9422C38.97 32.9422 40.4 34.441 40.4 36.2004C40.4 37.9598 38.905 39.4585 37.15 39.4585Z" fill="#414352"/>
</svg>
