<svg width="73" height="61" viewBox="0 0 73 61" fill="none" xmlns="http://www.w3.org/2000/svg">
<path d="M57.4443 0.0629883C49.1776 0.0629883 42.4468 6.79387 42.4468 15.0605C42.4468 22.8679 48.45 29.3583 56.0809 30.058V57.3262H47.9005V53.9177C49.386 53.302 50.6273 52.12 50.6273 50.424V42.2435C50.6273 40.4075 49.2392 39.0887 47.5596 38.5793L42.2764 25.3713C42.0833 24.893 41.5985 24.5462 41.0834 24.5192H13.8152H13.6448C13.1591 24.5764 12.7172 24.9167 12.537 25.3713L7.2538 38.5793C7.25293 38.6066 7.25293 38.6366 7.2538 38.6639C5.61555 39.1989 4.27134 40.4366 4.27134 42.2428V50.4233C4.27134 52.1333 5.4935 53.3103 6.99816 53.917V57.3256H1.54452C1.43135 57.3113 1.31684 57.3113 1.20367 57.3256C1.02462 57.3479 0.851722 57.4055 0.694861 57.4947C0.538 57.5839 0.400244 57.7031 0.289457 57.8455C0.178671 57.9879 0.0970239 58.1508 0.0491792 58.3248C0.00133445 58.4988 -0.011771 58.6803 0.0106105 58.8594C0.032992 59.0385 0.0904221 59.2115 0.179622 59.3684C0.268822 59.5252 0.388045 59.663 0.530483 59.7738C0.672921 59.8846 0.835784 59.9659 1.00977 60.0138C1.18376 60.0616 1.36547 60.0748 1.54452 60.0524H64.3466C64.5273 60.0549 64.7067 60.0216 64.8743 59.9542C65.042 59.8868 65.1946 59.7868 65.3232 59.6599C65.4519 59.5331 65.5541 59.3819 65.6238 59.2152C65.6935 59.0485 65.7294 58.8697 65.7294 58.689C65.7294 58.5083 65.6935 58.3294 65.6238 58.1627C65.5541 57.996 65.4519 57.8449 65.3232 57.718C65.1946 57.5912 65.042 57.4911 64.8743 57.4238C64.7067 57.3564 64.5273 57.323 64.3466 57.3256H58.8078V30.0574C66.4471 29.3574 72.5271 22.8673 72.5271 15.0598C72.5271 6.79321 65.7111 0.0629883 57.4443 0.0629883ZM53.3541 8.15824C53.3825 8.15735 53.4108 8.15735 53.4392 8.15824C53.4959 8.15468 53.5529 8.15468 53.6096 8.15824C53.638 8.15735 53.6663 8.15735 53.6947 8.15824H59.1483C62.1461 8.15824 64.602 10.614 64.602 13.6119C64.602 16.6095 62.1461 19.0655 59.1483 19.0655H54.9729V23.1558C54.9754 23.3364 54.9421 23.516 54.8747 23.6837C54.8073 23.8513 54.7073 24.0037 54.5805 24.1324C54.4536 24.261 54.3024 24.3632 54.1357 24.433C53.9691 24.5027 53.7902 24.5388 53.6095 24.5388C53.4288 24.5388 53.2499 24.5027 53.0832 24.433C52.9165 24.3632 52.7654 24.261 52.6385 24.1324C52.5117 24.0037 52.4116 23.8513 52.3443 23.6837C52.2769 23.516 52.2435 23.3364 52.2461 23.1558V9.52165C52.2596 9.40484 52.2882 9.29027 52.3311 9.1808C52.3556 9.12254 52.384 9.06602 52.4162 9.0117C52.4154 8.98353 52.4154 8.95533 52.4162 8.92715C52.4433 8.89774 52.4717 8.86952 52.5013 8.84261C52.5257 8.78435 52.5541 8.72816 52.5864 8.67384C52.5855 8.64567 52.5855 8.61747 52.5864 8.5893C52.6147 8.58841 52.6431 8.58841 52.6715 8.5893C52.7232 8.52804 52.7802 8.47144 52.8419 8.4202C52.8967 8.38809 52.9536 8.35983 53.0123 8.33565C53.0671 8.30354 53.124 8.27528 53.1827 8.25111C53.2111 8.25022 53.2395 8.25022 53.2678 8.25111C53.2949 8.2217 53.3233 8.19348 53.3529 8.16656L53.3541 8.15824ZM54.9732 10.8851V16.3387H59.1486C60.6829 16.3387 61.8754 15.146 61.8754 13.6119C61.8754 12.0775 60.6829 10.8851 59.1486 10.8851H54.9732ZM14.6673 27.246H40.1461L44.492 38.1533H10.3215L14.6673 27.246ZM13.4744 43.8625C14.7921 43.8625 15.8603 44.9309 15.8603 46.2485C15.8603 47.5664 14.7921 48.6345 13.4744 48.6345C12.1566 48.6345 11.0884 47.5664 11.0884 46.2485C11.0884 44.9309 12.1566 43.8625 13.4744 43.8625ZM41.4243 43.8625C42.742 43.8625 43.8102 44.9309 43.8102 46.2485C43.8102 47.5664 42.742 48.6345 41.4243 48.6345C40.1065 48.6345 39.0383 47.5664 39.0383 46.2485C39.0383 44.9309 40.1065 43.8625 41.4243 43.8625ZM15.1786 54.5142H39.72V57.3262H15.1786V54.5142Z" fill="#FF8C00"/>
</svg>
