<svg width="30" height="30" viewBox="0 0 30 30" fill="none" xmlns="http://www.w3.org/2000/svg">
<path d="M25.0909 19.0909C24.9094 19.5022 24.8552 19.9584 24.9354 20.4008C25.0157 20.8432 25.2265 21.2513 25.5409 21.5727L25.6227 21.6545C25.8763 21.9078 26.0775 22.2086 26.2147 22.5397C26.352 22.8708 26.4226 23.2257 26.4226 23.5841C26.4226 23.9425 26.352 24.2974 26.2147 24.6285C26.0775 24.9596 25.8763 25.2603 25.6227 25.5136C25.3694 25.7672 25.0687 25.9684 24.7376 26.1056C24.4065 26.2429 24.0516 26.3135 23.6932 26.3135C23.3348 26.3135 22.9799 26.2429 22.6488 26.1056C22.3177 25.9684 22.0169 25.7672 21.7636 25.5136L21.6818 25.4318C21.3604 25.1174 20.9522 24.9066 20.5099 24.8264C20.0675 24.7462 19.6113 24.8003 19.2 24.9818C18.7967 25.1547 18.4527 25.4417 18.2104 25.8075C17.9681 26.1734 17.8381 26.6021 17.8364 27.0409V27.2727C17.8364 27.996 17.549 28.6897 17.0376 29.2012C16.5261 29.7127 15.8324 30 15.1091 30C14.3858 30 13.6921 29.7127 13.1806 29.2012C12.6692 28.6897 12.3818 27.996 12.3818 27.2727V27.15C12.3713 26.6986 12.2252 26.2609 11.9625 25.8937C11.6999 25.5265 11.3328 25.2468 10.9091 25.0909C10.4978 24.9094 10.0416 24.8552 9.5992 24.9354C9.15684 25.0157 8.74865 25.2265 8.42727 25.5409L8.34545 25.6227C8.09216 25.8763 7.79138 26.0775 7.46029 26.2147C7.12921 26.352 6.77431 26.4226 6.41591 26.4226C6.0575 26.4226 5.70261 26.352 5.37153 26.2147C5.04044 26.0775 4.73965 25.8763 4.48636 25.6227C4.23279 25.3694 4.03163 25.0687 3.89438 24.7376C3.75713 24.4065 3.68649 24.0516 3.68649 23.6932C3.68649 23.3348 3.75713 22.9799 3.89438 22.6488C4.03163 22.3177 4.23279 22.0169 4.48636 21.7636L4.56818 21.6818C4.88255 21.3604 5.09343 20.9522 5.17364 20.5099C5.25385 20.0675 5.1997 19.6113 5.01818 19.2C4.84532 18.7967 4.5583 18.4527 4.19245 18.2104C3.8266 17.9681 3.39789 17.8381 2.95909 17.8364H2.72727C2.00396 17.8364 1.31026 17.549 0.7988 17.0376C0.287337 16.5261 0 15.8324 0 15.1091C0 14.3858 0.287337 13.6921 0.7988 13.1806C1.31026 12.6692 2.00396 12.3818 2.72727 12.3818H2.85C3.30136 12.3713 3.7391 12.2252 4.10632 11.9625C4.47354 11.6999 4.75325 11.3328 4.90909 10.9091C5.09061 10.4978 5.14476 10.0416 5.06455 9.5992C4.98434 9.15684 4.77346 8.74865 4.45909 8.42727L4.37727 8.34545C4.1237 8.09216 3.92254 7.79138 3.78529 7.46029C3.64804 7.12921 3.5774 6.77431 3.5774 6.41591C3.5774 6.0575 3.64804 5.70261 3.78529 5.37153C3.92254 5.04044 4.1237 4.73965 4.37727 4.48636C4.63056 4.23279 4.93135 4.03163 5.26244 3.89438C5.59352 3.75713 5.94841 3.68649 6.30682 3.68649C6.66522 3.68649 7.02012 3.75713 7.3512 3.89438C7.68229 4.03163 7.98307 4.23279 8.23636 4.48636L8.31818 4.56818C8.63956 4.88255 9.04775 5.09343 9.49011 5.17364C9.93246 5.25385 10.3887 5.1997 10.8 5.01818H10.9091C11.3124 4.84532 11.6564 4.5583 11.8987 4.19245C12.141 3.8266 12.271 3.39789 12.2727 2.95909V2.72727C12.2727 2.00396 12.5601 1.31026 13.0715 0.7988C13.583 0.287337 14.2767 0 15 0C15.7233 0 16.417 0.287337 16.9285 0.7988C17.4399 1.31026 17.7273 2.00396 17.7273 2.72727V2.85C17.729 3.2888 17.859 3.71751 18.1013 4.08336C18.3436 4.44921 18.6876 4.73623 19.0909 4.90909C19.5022 5.09061 19.9584 5.14476 20.4008 5.06455C20.8432 4.98434 21.2513 4.77346 21.5727 4.45909L21.6545 4.37727C21.9078 4.1237 22.2086 3.92254 22.5397 3.78529C22.8708 3.64804 23.2257 3.5774 23.5841 3.5774C23.9425 3.5774 24.2974 3.64804 24.6285 3.78529C24.9596 3.92254 25.2603 4.1237 25.5136 4.37727C25.7672 4.63056 25.9684 4.93135 26.1056 5.26244C26.2429 5.59352 26.3135 5.94841 26.3135 6.30682C26.3135 6.66522 26.2429 7.02012 26.1056 7.3512C25.9684 7.68229 25.7672 7.98307 25.5136 8.23636L25.4318 8.31818C25.1174 8.63956 24.9066 9.04775 24.8264 9.49011C24.7462 9.93246 24.8003 10.3887 24.9818 10.8V10.9091C25.1547 11.3124 25.4417 11.6564 25.8075 11.8987C26.1734 12.141 26.6021 12.271 27.0409 12.2727H27.2727C27.996 12.2727 28.6897 12.5601 29.2012 13.0715C29.7127 13.583 30 14.2767 30 15C30 15.7233 29.7127 16.417 29.2012 16.9285C28.6897 17.4399 27.996 17.7273 27.2727 17.7273H27.15C26.7112 17.729 26.2825 17.859 25.9166 18.1013C25.5508 18.3436 25.2638 18.6876 25.0909 19.0909Z" fill="#63667B"/>
<path d="M15.0001 19.0915C17.2594 19.0915 19.091 17.2599 19.091 15.0006C19.091 12.7412 17.2594 10.9097 15.0001 10.9097C12.7407 10.9097 10.9092 12.7412 10.9092 15.0006C10.9092 17.2599 12.7407 19.0915 15.0001 19.0915Z" stroke="#0F0F10" stroke-width="1.5" stroke-linecap="round" stroke-linejoin="round"/>
<path d="M14.9998 23.0767C19.4605 23.0767 23.0767 19.4605 23.0767 14.9998C23.0767 10.539 19.4605 6.92285 14.9998 6.92285C10.539 6.92285 6.92285 10.539 6.92285 14.9998C6.92285 19.4605 10.539 23.0767 14.9998 23.0767Z" stroke="#0F0F10" stroke-linecap="round" stroke-linejoin="round"/>
</svg>
