<svg width="58" height="61" viewBox="0 0 58 61" fill="none" xmlns="http://www.w3.org/2000/svg">
<path d="M3.21429 35.3886V1.10292C3.21429 0.818762 3.32717 0.54624 3.5281 0.345309C3.72903 0.144377 4.00155 0.0314941 4.28571 0.0314941H53.5714C53.8556 0.0314941 54.1281 0.144377 54.329 0.345309C54.53 0.54624 54.6429 0.818762 54.6429 1.10292V35.3886C54.6429 35.6728 54.53 35.9453 54.329 36.1463C54.1281 36.3472 53.8556 36.4601 53.5714 36.4601H39.6429V29.7886C41.71 27.6788 43.1083 25.0057 43.6623 22.1045C44.2164 19.2032 43.9015 16.2029 42.7573 13.4799C41.6131 10.7569 39.6904 8.43223 37.2303 6.79752C34.7702 5.16282 31.8823 4.29079 28.9286 4.29079C25.9749 4.29079 23.0869 5.16282 20.6269 6.79752C18.1668 8.43223 16.2441 10.7569 15.0998 13.4799C13.9556 16.2029 13.6408 19.2032 14.1948 22.1045C14.7489 25.0057 16.1471 27.6788 18.2143 29.7886V36.4601H4.28571C4.00155 36.4601 3.72903 36.3472 3.5281 36.1463C3.32717 35.9453 3.21429 35.6728 3.21429 35.3886ZM41.7857 19.3172C41.789 17.3105 41.3225 15.3308 40.4236 13.5367C39.5247 11.7426 38.2183 10.1838 36.609 8.98503C34.9996 7.78628 33.1321 6.98088 31.1557 6.63328C29.1793 6.28568 27.149 6.40554 25.2272 6.98325C23.3054 7.56096 21.5456 8.58049 20.0884 9.96025C18.6313 11.34 17.5174 13.0417 16.8358 14.9291C16.1542 16.8165 15.9239 18.8373 16.1632 20.8297C16.4026 22.8221 17.105 24.7308 18.2143 26.4031V19.3172C18.2143 16.4756 19.3431 13.7504 21.3524 11.7411C23.3617 9.73175 26.087 8.60292 28.9286 8.60292C31.7702 8.60292 34.4954 9.73175 36.5047 11.7411C38.514 13.7504 39.6429 16.4756 39.6429 19.3172V26.4031C41.0399 24.304 41.7854 21.8387 41.7857 19.3172ZM42.8571 51.4601C42.8577 52.0282 43.0837 52.5729 43.4854 52.9747C43.8871 53.3764 44.4319 53.6024 45 53.6029H52.5C53.3525 53.6029 54.17 53.9416 54.7728 54.5444C55.3756 55.1472 55.7143 55.9647 55.7143 56.8172C55.7143 57.6697 55.3756 58.4873 54.7728 59.09C54.17 59.6928 53.3525 60.0315 52.5 60.0315H8.57143C7.43479 60.0315 6.3447 59.58 5.54097 58.7762C4.73724 57.9725 4.28571 56.8824 4.28571 55.7458C4.28571 54.6091 4.73724 53.519 5.54097 52.7153C6.3447 51.9116 7.43479 51.4601 8.57143 51.4601H11.7857C12.0699 51.4601 12.3424 51.3472 12.5433 51.1463C12.7443 50.9453 12.8571 50.6728 12.8571 50.3886C12.8571 50.1045 12.7443 49.832 12.5433 49.631C12.3424 49.4301 12.0699 49.3172 11.7857 49.3172H4.28571C3.14907 49.3172 2.05898 48.8657 1.25526 48.062C0.451529 47.2582 0 46.1681 0 45.0315C0 43.8949 0.451529 42.8048 1.25526 42.001C2.05898 41.1973 3.14907 40.7458 4.28571 40.7458H17.1429C17.9951 40.7448 18.8121 40.4059 19.4147 39.8033C20.0173 39.2007 20.3562 38.3837 20.3571 37.5315V19.3172C20.3571 17.0439 21.2602 14.8637 22.8677 13.2563C24.4751 11.6488 26.6553 10.7458 28.9286 10.7458C31.2019 10.7458 33.382 11.6488 34.9895 13.2563C36.5969 14.8637 37.5 17.0439 37.5 19.3172V37.5315C37.5009 38.3837 37.8399 39.2007 38.4425 39.8033C39.0451 40.4059 39.8621 40.7448 40.7143 40.7458H53.5714C54.7081 40.7458 55.7982 41.1973 56.6019 42.001C57.4056 42.8048 57.8571 43.8949 57.8571 45.0315C57.8571 46.1681 57.4056 47.2582 56.6019 48.062C55.7982 48.8657 54.7081 49.3172 53.5714 49.3172H45C44.4319 49.3178 43.8871 49.5437 43.4854 49.9455C43.0837 50.3472 42.8577 50.8919 42.8571 51.4601ZM31.0714 22.5315C31.0714 22.8157 31.1843 23.0882 31.3852 23.2891C31.5862 23.49 31.8587 23.6029 32.1429 23.6029C32.427 23.6029 32.6995 23.49 32.9005 23.2891C33.1014 23.0882 33.2143 22.8157 33.2143 22.5315V20.3886C33.2143 20.1045 33.1014 19.832 32.9005 19.631C32.6995 19.4301 32.427 19.3172 32.1429 19.3172C31.8587 19.3172 31.5862 19.4301 31.3852 19.631C31.1843 19.832 31.0714 20.1045 31.0714 20.3886V22.5315ZM31.0714 33.2458C31.0714 33.5299 31.1843 33.8025 31.3852 34.0034C31.5862 34.2043 31.8587 34.3172 32.1429 34.3172C32.427 34.3172 32.6995 34.2043 32.9005 34.0034C33.1014 33.8025 33.2143 33.5299 33.2143 33.2458V26.8172C33.2143 26.533 33.1014 26.2605 32.9005 26.0596C32.6995 25.8587 32.427 25.7458 32.1429 25.7458C31.8587 25.7458 31.5862 25.8587 31.3852 26.0596C31.1843 26.2605 31.0714 26.533 31.0714 26.8172V33.2458ZM20.3571 54.6744C20.3571 54.3902 20.2443 54.1177 20.0433 53.9167C19.8424 53.7158 19.5699 53.6029 19.2857 53.6029H17.1429C16.8587 53.6029 16.5862 53.7158 16.3852 53.9167C16.1843 54.1177 16.0714 54.3902 16.0714 54.6744C16.0714 54.9585 16.1843 55.231 16.3852 55.432C16.5862 55.6329 16.8587 55.7458 17.1429 55.7458H19.2857C19.5699 55.7458 19.8424 55.6329 20.0433 55.432C20.2443 55.231 20.3571 54.9585 20.3571 54.6744ZM26.7857 51.4601C26.7857 51.1759 26.6728 50.9034 26.4719 50.7024C26.271 50.5015 25.9984 50.3886 25.7143 50.3886H23.5714C23.2873 50.3886 23.0147 50.5015 22.8138 50.7024C22.6129 50.9034 22.5 51.1759 22.5 51.4601C22.5 51.7442 22.6129 52.0167 22.8138 52.2177C23.0147 52.4186 23.2873 52.5315 23.5714 52.5315H25.7143C25.9984 52.5315 26.271 52.4186 26.4719 52.2177C26.6728 52.0167 26.7857 51.7442 26.7857 51.4601ZM26.7857 22.5315C26.7857 22.2473 26.6728 21.9748 26.4719 21.7739C26.271 21.5729 25.9984 21.4601 25.7143 21.4601C25.4301 21.4601 25.1576 21.5729 24.9567 21.7739C24.7557 21.9748 24.6429 22.2473 24.6429 22.5315V37.5315C24.6406 39.5199 23.8498 41.4263 22.4437 42.8324C21.0377 44.2384 19.1313 45.0293 17.1429 45.0315C16.8587 45.0315 16.5862 45.1444 16.3852 45.3453C16.1843 45.5462 16.0714 45.8188 16.0714 46.1029C16.0714 46.3871 16.1843 46.6596 16.3852 46.8605C16.5862 47.0615 16.8587 47.1744 17.1429 47.1744C19.6994 47.1715 22.1505 46.1547 23.9583 44.3469C25.766 42.5391 26.7829 40.0881 26.7857 37.5315V22.5315ZM33.2143 54.6744C33.2143 54.3902 33.1014 54.1177 32.9005 53.9167C32.6995 53.7158 32.427 53.6029 32.1429 53.6029H30C29.7158 53.6029 29.4433 53.7158 29.2424 53.9167C29.0415 54.1177 28.9286 54.3902 28.9286 54.6744C28.9286 54.9585 29.0415 55.231 29.2424 55.432C29.4433 55.6329 29.7158 55.7458 30 55.7458H32.1429C32.427 55.7458 32.6995 55.6329 32.9005 55.432C33.1014 55.231 33.2143 54.9585 33.2143 54.6744ZM37.5 50.3886C37.5 50.1045 37.3871 49.832 37.1862 49.631C36.9853 49.4301 36.7127 49.3172 36.4286 49.3172H34.2857C34.0016 49.3172 33.729 49.4301 33.5281 49.631C33.3272 49.832 33.2143 50.1045 33.2143 50.3886C33.2143 50.6728 33.3272 50.9453 33.5281 51.1463C33.729 51.3472 34.0016 51.4601 34.2857 51.4601H36.4286C36.7127 51.4601 36.9853 51.3472 37.1862 51.1463C37.3871 50.9453 37.5 50.6728 37.5 50.3886ZM41.7857 46.1029C41.7857 45.8188 41.6728 45.5462 41.4719 45.3453C41.271 45.1444 40.9984 45.0315 40.7143 45.0315C38.7258 45.0293 36.8195 44.2384 35.4134 42.8324C34.0074 41.4263 33.2165 39.5199 33.2143 37.5315C33.2143 37.2473 33.1014 36.9748 32.9005 36.7739C32.6995 36.5729 32.427 36.4601 32.1429 36.4601C31.8587 36.4601 31.5862 36.5729 31.3852 36.7739C31.1843 36.9748 31.0714 37.2473 31.0714 37.5315C31.0743 40.0881 32.0911 42.5391 33.8989 44.3469C35.7067 46.1547 38.1577 47.1715 40.7143 47.1744C40.9984 47.1744 41.271 47.0615 41.4719 46.8605C41.6728 46.6596 41.7857 46.3871 41.7857 46.1029Z" fill="#BCAAA4"/>
</svg>
