<svg width="60" height="61" viewBox="0 0 60 61" fill="none" xmlns="http://www.w3.org/2000/svg">
<path d="M57.8036 10.8088L57.5893 15.0945H58.1893C58.7075 15.0889 59.1485 14.7154 59.2393 14.2052L59.8071 10.8088H57.8036ZM58.9286 21.5231H57.2571L56.7107 32.2373H58.9286C59.5196 32.2356 59.9982 31.7569 60 31.1659V22.5945C59.9982 22.0035 59.5196 21.5248 58.9286 21.5231ZM52.5 10.8088V12.9516C52.5 13.5434 52.0203 14.0231 51.4286 14.0231C50.8368 14.0231 50.3571 13.5434 50.3571 12.9516V10.8088H48.2143V12.9516C48.2143 13.5434 47.7346 14.0231 47.1429 14.0231C46.5511 14.0231 46.0714 13.5434 46.0714 12.9516V10.8088H43.9286V12.9516C43.9286 13.5434 43.4489 14.0231 42.8571 14.0231C42.2654 14.0231 41.7857 13.5434 41.7857 12.9516V10.8088H39.6429V12.9516C39.6429 13.5434 39.1632 14.0231 38.5714 14.0231C37.9797 14.0231 37.5 13.5434 37.5 12.9516V10.8088H35.3571V12.9516C35.3571 13.5434 34.8774 14.0231 34.2857 14.0231C33.694 14.0231 33.2143 13.5434 33.2143 12.9516V10.8088H31.0714V12.9516C31.0714 13.5434 30.5917 14.0231 30 14.0231C29.4083 14.0231 28.9286 13.5434 28.9286 12.9516V10.8088H26.7857V12.9516C26.7857 13.5434 26.306 14.0231 25.7143 14.0231C25.1226 14.0231 24.6429 13.5434 24.6429 12.9516V10.8088H22.5V12.9516C22.5 13.5434 22.0203 14.0231 21.4286 14.0231C20.8368 14.0231 20.3571 13.5434 20.3571 12.9516V10.8088H18.2143V12.9516C18.2143 13.5434 17.7346 14.0231 17.1429 14.0231C16.5511 14.0231 16.0714 13.5434 16.0714 12.9516V10.8088H13.9286V12.9516C13.9286 13.5434 13.4489 14.0231 12.8571 14.0231C12.2654 14.0231 11.7857 13.5434 11.7857 12.9516V10.8088H9.64286V12.9516C9.64286 13.5434 9.16316 14.0231 8.57143 14.0231C7.97969 14.0231 7.5 13.5434 7.5 12.9516V10.8088H4.33929L4.61786 16.1659L4.78929 19.5195L5.49643 33.2981V33.3088L6.225 47.6123C6.98318 47.3673 7.77465 47.2408 8.57143 47.2373C11.0232 47.2408 13.3189 48.4407 14.7214 50.4516H45.2786C46.6811 48.4407 48.9768 47.2408 51.4286 47.2373C52.2254 47.2408 53.0168 47.3673 53.775 47.6123L54.5036 33.3088V33.2981L55.2107 19.5195L55.3821 16.1659L55.6607 10.8088H52.5ZM49.2857 35.4516H10.7143C10.1226 35.4516 9.64286 34.9719 9.64286 34.3802C9.64286 33.7885 10.1226 33.3088 10.7143 33.3088H49.2857C49.8774 33.3088 50.3571 33.7885 50.3571 34.3802C50.3571 34.9719 49.8774 35.4516 49.2857 35.4516ZM50.3571 27.9516H9.64286C9.05112 27.9516 8.57143 27.4719 8.57143 26.8802C8.57143 26.2885 9.05112 25.8088 9.64286 25.8088H50.3571C50.9489 25.8088 51.4286 26.2885 51.4286 26.8802C51.4286 27.4719 50.9489 27.9516 50.3571 27.9516ZM51.4286 20.4516H8.57143C7.97969 20.4516 7.5 19.9719 7.5 19.3802C7.5 18.7885 7.97969 18.3088 8.57143 18.3088H51.4286C52.0203 18.3088 52.5 18.7885 52.5 19.3802C52.5 19.9719 52.0203 20.4516 51.4286 20.4516ZM51.4286 53.6659C50.8368 53.6659 50.3571 54.1456 50.3571 54.7373C50.3571 55.3291 50.8368 55.8088 51.4286 55.8088C52.0203 55.8088 52.5 55.3291 52.5 54.7373C52.4982 54.1463 52.0196 53.6677 51.4286 53.6659ZM51.4286 49.3802C48.4699 49.3802 46.0714 51.7787 46.0714 54.7373C46.0714 57.696 48.4699 60.0945 51.4286 60.0945C54.3872 60.0945 56.7857 57.696 56.7857 54.7373C56.7846 51.7791 54.3868 49.3813 51.4286 49.3802ZM51.4286 57.9516C49.6534 57.9516 48.2143 56.5125 48.2143 54.7373C48.2143 52.9621 49.6534 51.5231 51.4286 51.5231C53.2038 51.5231 54.6429 52.9621 54.6429 54.7373C54.6377 56.5104 53.2016 57.9464 51.4286 57.9516ZM8.57143 53.6659C7.97969 53.6659 7.5 54.1456 7.5 54.7373C7.5 55.3291 7.97969 55.8088 8.57143 55.8088C9.16316 55.8088 9.64286 55.3291 9.64286 54.7373C9.64109 54.1463 9.16243 53.6677 8.57143 53.6659ZM8.57143 53.6659C7.97969 53.6659 7.5 54.1456 7.5 54.7373C7.5 55.3291 7.97969 55.8088 8.57143 55.8088C9.16316 55.8088 9.64286 55.3291 9.64286 54.7373C9.64109 54.1463 9.16243 53.6677 8.57143 53.6659ZM8.57143 49.3802C5.61276 49.3802 3.21429 51.7787 3.21429 54.7373C3.21429 57.696 5.61276 60.0945 8.57143 60.0945C11.5301 60.0945 13.9286 57.696 13.9286 54.7373C13.9275 51.7791 11.5297 49.3813 8.57143 49.3802ZM8.57143 57.9516C6.79623 57.9516 5.35714 56.5125 5.35714 54.7373C5.35714 52.9621 6.79623 51.5231 8.57143 51.5231C10.3466 51.5231 11.7857 52.9621 11.7857 54.7373C11.7805 56.5104 10.3445 57.9464 8.57143 57.9516ZM8.57143 53.6659C7.97969 53.6659 7.5 54.1456 7.5 54.7373C7.5 55.3291 7.97969 55.8088 8.57143 55.8088C9.16316 55.8088 9.64286 55.3291 9.64286 54.7373C9.64109 54.1463 9.16243 53.6677 8.57143 53.6659ZM2.74286 21.5231H1.07143C0.480428 21.5248 0.00176507 22.0035 0 22.5945V31.1659C0.00176507 31.7569 0.480428 32.2356 1.07143 32.2373H3.28929L2.74286 21.5231ZM2.19643 10.8088H0.192857L0.760714 14.2052C0.851548 14.7154 1.29249 15.0889 1.81071 15.0945H2.41071L2.19643 10.8088ZM58.9286 6.52306H1.07143C0.480428 6.52482 0.00176507 7.00348 0 7.59448V8.66591H60V7.59448C59.9982 7.00348 59.5196 6.52482 58.9286 6.52306ZM53.9571 1.51948C53.3577 0.627672 52.3531 0.0932747 51.2786 0.0944845H8.72143C7.64685 0.0932747 6.64235 0.627672 6.04286 1.51948L4.14643 4.3802H55.8536L53.9571 1.51948Z" fill="#1ABC9C"/>
</svg>
