<svg width="80" height="61" viewBox="0 0 80 61" fill="none" xmlns="http://www.w3.org/2000/svg">
<path d="M61.8545 54.8036C65.0545 53.2036 67.6323 51.5148 69.7656 49.737V44.5814C67.4545 46.537 64.8767 48.4925 61.8545 50.1814V54.8036Z" fill="#7C4DFF"/>
<path d="M12.6104 56.5814C14.8326 57.737 17.4104 58.7148 20.5215 59.5148V55.5148C17.4104 54.7148 14.8326 53.6481 12.6104 52.4926V56.5814Z" fill="#7C4DFF"/>
<path d="M49.9434 58.9815C53.2322 58.1815 56.0767 57.2926 58.6545 56.2259V51.8704C55.9878 53.1148 53.1434 54.2704 49.9434 55.1592V58.9815Z" fill="#7C4DFF"/>
<path d="M2.92139 45.2926C3.54361 48.7593 5.49917 51.9593 8.4325 54.0037C8.87694 54.3593 9.41028 54.6259 9.85472 54.9815V50.8926C9.49917 50.6259 9.14361 50.4482 8.78805 50.1815C6.29917 48.5815 4.34361 46.8037 2.92139 45.2926Z" fill="#7C4DFF"/>
<path d="M36.877 57.1148V60.8481C39.0103 60.7592 41.2325 60.4926 43.6325 60.137C44.5214 60.0481 45.3214 59.8703 46.1214 59.6926V55.9592C44.877 56.2259 43.5436 56.4037 42.1214 56.5815C40.4325 56.937 38.6547 57.0259 36.877 57.1148Z" fill="#7C4DFF"/>
<path d="M72.4326 42.1814V47.337C72.5215 47.2481 72.6104 47.1592 72.6993 47.0703C75.6326 43.9592 77.5882 39.9592 78.1215 35.6925C77.4104 36.5814 76.6993 37.5592 75.8993 38.4481C74.9215 39.6036 73.766 40.9369 72.4326 42.1814Z" fill="#7C4DFF"/>
<path d="M23.7212 60.137C26.5656 60.6703 29.6767 60.937 33.1434 60.937V57.1147C29.6767 57.0259 26.4767 56.6703 23.7212 56.137V60.137Z" fill="#7C4DFF"/>
<path d="M50.4771 9.64812C50.6549 9.64812 50.8326 9.64812 51.0104 9.64812C51.0993 5.8259 51.2771 2.89257 51.2771 0.937012C51.1882 0.937012 51.0993 0.937012 51.0104 0.937012C47.6326 0.937012 44.0771 1.20368 40.3438 1.8259C41.4104 3.60368 42.7437 6.27034 43.5437 10.0037C46.0326 9.8259 48.3438 9.64812 50.4771 9.64812Z" fill="#7C4DFF"/>
<path d="M33.5882 11.9592C34.566 11.6925 35.5438 11.4259 36.6105 11.2481C38.6549 10.8036 40.6994 10.4481 42.7438 10.1814C41.9438 6.3592 40.5216 3.69253 39.4549 2.09253C38.0327 2.3592 36.6993 2.62586 35.2771 2.98142C32.7882 3.60364 30.4771 4.31475 28.166 5.11475C30.1216 6.53697 32.3438 8.84809 33.5882 11.9592Z" fill="#7C4DFF"/>
<path d="M64.9659 13.026C68.9659 10.0037 73.2325 9.11484 75.5437 8.84818C72.877 6.09262 68.9659 4.04818 64.3437 2.71484C63.277 4.49262 61.9437 7.24818 60.6992 10.9815C62.2992 11.5148 63.8103 12.1371 64.9659 13.026Z" fill="#7C4DFF"/>
<path d="M68.166 19.4259C68.0771 21.1148 67.2771 22.8926 66.1216 24.5814C71.0994 26.8037 74.0327 30.4481 75.1882 32.0481C77.8549 28.4926 79.366 24.6703 79.7216 21.0259C78.2994 20.4037 73.766 18.6259 68.166 19.4259Z" fill="#7C4DFF"/>
<path d="M63.3656 2.4481C59.9878 1.55921 56.3433 1.11477 52.3433 1.02588C52.2544 2.89255 52.1655 5.91477 52.0767 9.73699C54.9211 9.82588 57.5878 10.1814 59.81 10.7148C60.8767 6.98144 62.21 4.31477 63.3656 2.4481Z" fill="#7C4DFF"/>
<path d="M79.455 15.6926C78.9217 13.4704 77.855 11.5148 76.3439 9.73706C74.3883 9.91484 69.9439 10.5371 65.7661 13.6482C66.8328 14.6259 67.6328 15.6926 67.9883 17.0259C68.1661 17.4704 68.1661 18.0037 68.255 18.5371C73.6772 17.7371 78.1217 19.2482 79.8994 20.0482C79.9883 18.5371 79.8106 17.1148 79.455 15.6926Z" fill="#7C4DFF"/>
<path d="M65.4991 41.1147C65.0547 39.6036 63.2769 34.8925 58.7436 31.1592C56.4325 32.5814 53.8547 33.9147 51.0103 35.0703C53.2325 39.6036 54.2103 44.4036 54.4769 46.537C58.6547 45.1147 62.2991 43.2481 65.4991 41.1147Z" fill="#7C4DFF"/>
<path d="M65.5879 25.3815C64.0768 27.2481 62.1212 29.0259 59.6323 30.6259C63.9879 34.2704 65.8546 38.7148 66.3879 40.4926C69.6768 38.1815 72.5212 35.6037 74.6545 32.8481C73.6768 31.5148 70.7434 27.6037 65.5879 25.3815Z" fill="#7C4DFF"/>
<path d="M38.5658 38.4481C36.877 38.6259 35.1881 38.7148 33.4992 38.7148C31.8992 38.7148 30.2992 38.6259 28.7881 38.4481C25.4103 41.8259 24.877 46.8926 24.877 49.5592C27.7214 50.0037 30.7436 50.2703 33.8547 50.2703C35.8103 50.2703 37.7658 50.1815 39.7214 50.0037C39.1881 47.6037 38.3881 42.9815 38.5658 38.4481Z" fill="#7C4DFF"/>
<path d="M9.41016 44.4926C10.0324 42.8037 12.4324 37.8259 17.8546 35.5148C15.2768 34.1815 13.4102 32.4037 12.8768 30.2704C6.83238 30.2704 2.83238 34.7148 1.41016 36.6704C2.92127 39.6926 5.76571 42.3593 9.41016 44.4926Z" fill="#7C4DFF"/>
<path d="M27.5433 38.3592C24.4322 37.9147 21.4988 37.2036 19.0988 36.137C13.321 38.0925 10.8322 43.5147 10.2988 44.937C14.1211 46.9814 18.7433 48.5814 23.8988 49.3814C23.8988 46.7147 24.3433 41.9147 27.5433 38.3592Z" fill="#7C4DFF"/>
<path d="M50.1211 35.5148C48.4322 36.137 46.7433 36.7592 44.8767 37.2925C43.1878 37.8259 41.3211 38.1814 39.5433 38.3592C39.3656 42.8037 40.1656 47.6037 40.6989 49.9148C43.1878 49.6481 45.6767 49.2037 48.0767 48.5814C50.0322 48.137 51.81 47.6037 53.5878 46.9814C53.3211 44.937 52.3433 40.0481 50.1211 35.5148Z" fill="#7C4DFF"/>
<path d="M12.6992 29.3814C12.4326 26.8925 13.677 24.3148 15.9881 21.8259C10.2103 19.5148 4.43257 22.1814 1.94368 23.6037C0.165903 26.9814 -0.45632 30.4481 0.34368 33.8259C0.521458 34.4481 0.699236 35.0703 0.965902 35.6925C2.5659 33.5592 6.65479 29.4703 12.6992 29.3814Z" fill="#7C4DFF"/>
<path d="M32.61 12.2259C31.3656 9.11478 28.9656 6.89256 26.9212 5.47034C22.0323 7.24811 17.6767 9.38145 13.8545 11.7814C17.0545 11.7814 21.1434 12.5814 24.3434 15.6926C26.9212 14.2703 29.6767 13.1148 32.61 12.2259Z" fill="#7C4DFF"/>
<path d="M16.6103 21.1148C18.3881 19.3371 20.7881 17.6482 23.4547 16.1371C19.9881 12.9371 15.4547 12.5815 12.2547 12.8482C8.25474 15.6037 4.96585 18.7148 2.83252 22.0037C5.94363 20.4037 11.277 18.7148 16.6103 21.1148Z" fill="#7C4DFF"/>
<path d="M2.74365 41.0259V42.9814C2.74365 43.2481 2.74365 43.4259 2.74365 43.6037C4.16587 45.2925 6.3881 47.4259 9.41032 49.4703C9.5881 49.5592 9.76587 49.6481 9.94365 49.8259V46.4481C7.01032 44.8481 4.61032 43.0703 2.74365 41.0259Z" fill="#7C4DFF"/>
<path d="M23.7212 55.2481C26.5656 55.7814 29.6767 56.137 33.1434 56.2259V51.7814C29.8545 51.7814 26.6545 51.4259 23.7212 50.9814V55.2481Z" fill="#7C4DFF"/>
<path d="M12.6104 51.3371C14.8326 52.4926 17.4992 53.5593 20.5215 54.4482V50.2704C17.677 49.6482 15.0104 48.7593 12.6104 47.6926V51.3371Z" fill="#7C4DFF"/>
<path d="M72.4326 37.5592V40.7592C74.7437 38.3592 76.6993 35.9592 78.2993 33.737C78.2993 33.3814 78.2993 33.0259 78.2993 32.6703V30.0925C77.2326 32.0481 75.8104 34.0036 74.1215 35.8703C73.6771 36.4036 73.0548 36.937 72.4326 37.5592Z" fill="#7C4DFF"/>
<path d="M61.8545 49.1148C64.7878 47.337 67.4545 45.3815 69.7656 43.337V39.8704C67.3656 41.8259 64.6989 43.5148 61.8545 45.0259V49.1148Z" fill="#7C4DFF"/>
<path d="M36.877 56.137C38.5658 56.0481 40.2547 55.9592 42.1214 55.6925C43.5436 55.5148 44.877 55.337 46.2103 55.0703V50.537C43.1881 51.1592 40.077 51.5148 36.877 51.6925V56.137Z" fill="#7C4DFF"/>
<path d="M49.9434 54.1814C53.0545 53.2925 55.9878 52.137 58.6545 50.8037V46.537C55.8989 47.7814 52.9656 48.7592 49.9434 49.5592V54.1814Z" fill="#7C4DFF"/>
<path d="M53.2327 14.0925C58.566 14.7148 63.0994 16.7592 66.6549 20.137C66.7438 19.5148 66.8327 18.8925 66.7438 18.2703C63.0994 15.1592 58.6549 13.2925 53.4105 12.5814C52.166 12.4036 50.8327 12.3148 49.4994 12.3148C49.5882 11.9592 49.766 11.5148 49.8549 11.0703C48.966 11.0703 48.0771 11.0703 47.1883 11.1592C47.0994 11.6036 47.0105 11.9592 46.8327 12.4036C40.6105 12.7592 34.3882 14.6259 29.2327 16.7592C28.7882 16.4036 28.2549 15.9592 27.7216 15.5148C26.8327 15.8703 26.0327 16.3148 25.1438 16.7592C25.5883 17.1148 26.0327 17.5592 26.566 18.0036C23.0994 19.6925 20.2549 21.4703 18.4771 22.8925C16.7882 24.4925 15.6327 26.537 15.0105 28.4925C14.7438 28.4036 14.3882 28.3148 14.1216 28.3148C14.1216 28.8481 14.1216 29.4703 14.2994 29.9148C14.566 30.7148 15.0994 31.5148 15.8105 32.3148C15.8105 31.8703 15.8994 31.4259 15.9882 30.9814C16.966 31.1592 17.766 31.337 18.3882 31.337C18.2105 32.137 18.2994 32.8481 18.3882 33.4703C18.3882 33.737 18.4771 33.9148 18.566 34.1814C19.1882 34.537 19.8105 34.8036 20.5216 35.0703C20.166 34.4481 19.8994 33.8259 19.8105 33.2036C19.366 30.6259 20.966 27.9592 24.5216 25.4703C34.4771 18.537 46.2105 15.6925 55.1882 18.0036C59.0994 19.0703 62.3882 21.0259 64.8771 23.9592C65.2327 23.5148 65.4994 23.1592 65.6771 22.7148C63.0105 19.7814 59.6327 17.737 55.5438 16.6703C53.2327 16.0481 50.8327 15.7814 48.2549 15.7814C48.4327 15.337 48.6994 14.6259 49.0549 13.8259C50.4771 13.8259 51.8994 13.9148 53.2327 14.0925ZM23.6327 24.3148C21.2327 26.0036 19.8105 27.6925 19.0105 29.2036C18.2105 29.1148 17.3216 28.937 16.4327 28.8481C16.966 27.1592 17.9438 25.4703 19.6327 24.0481C21.4105 22.537 24.3438 20.7592 27.9882 19.0703C28.6105 19.6036 29.3216 20.137 29.9438 20.5814C27.8105 21.6481 25.6771 22.8925 23.6327 24.3148ZM45.8549 15.9592C41.5882 16.3148 37.1438 17.4703 32.7882 19.337C32.2549 18.9814 31.5438 18.537 30.7438 17.9148C35.4549 15.9592 40.966 14.4481 46.566 14.0036C46.2994 14.6259 46.1216 15.2481 45.8549 15.9592Z" fill="#7C4DFF"/>
<path d="M23.277 29.2925C22.9215 29.4703 22.6548 29.8259 22.6548 30.2703C22.6548 30.7147 22.9215 31.0703 23.277 31.2481L35.8103 37.2036C38.9215 37.0259 41.9437 36.5814 44.6103 35.7814C47.0992 35.0703 49.4992 34.1814 51.7214 33.2036L34.0326 24.137L23.277 29.2925Z" fill="#7C4DFF"/>
<path d="M47.3656 19.1593C46.9212 18.8926 46.3879 18.8037 45.8545 18.8037C45.3212 18.8037 44.7879 18.8926 44.2545 19.1593L35.7212 23.2482L53.4101 32.4926C57.1434 30.7148 60.4323 28.5815 62.7434 26.3593L47.3656 19.1593Z" fill="#7C4DFF"/>
</svg>
