<svg width="30" height="26" viewBox="0 0 30 26" fill="none" xmlns="http://www.w3.org/2000/svg">
<path d="M4 2.88889C4 1.2934 5.2934 0 6.88889 0H12.6667C14.2622 0 15.5556 1.2934 15.5556 2.88889V8.66667C15.5556 10.2622 14.2622 11.5556 12.6667 11.5556H6.88889C5.2934 11.5556 4 10.2622 4 8.66667V2.88889Z" fill="#414352"/>
<path d="M4 17.3333C4 15.7378 5.2934 14.4444 6.88889 14.4444H12.6667C14.2622 14.4444 15.5556 15.7378 15.5556 17.3333V23.1111C15.5556 24.7066 14.2622 26 12.6667 26H6.88889C5.2934 26 4 24.7066 4 23.1111V17.3333Z" fill="#414352"/>
<path d="M18.4444 2.88889C18.4444 1.2934 19.7378 0 21.3333 0H27.1111C28.7066 0 30 1.2934 30 2.88889V8.66667C30 10.2622 28.7066 11.5556 27.1111 11.5556H21.3333C19.7378 11.5556 18.4444 10.2622 18.4444 8.66667V2.88889Z" fill="#414352"/>
<path d="M18.4444 17.3333C18.4444 15.7378 19.7378 14.4444 21.3333 14.4444H27.1111C28.7066 14.4444 30 15.7378 30 17.3333V23.1111C30 24.7066 28.7066 26 27.1111 26H21.3333C19.7378 26 18.4444 24.7066 18.4444 23.1111V17.3333Z" fill="#414352"/>
</svg>
