<svg width="70" height="61" viewBox="0 0 70 61" fill="none" xmlns="http://www.w3.org/2000/svg">
<path d="M51.6251 42.7512C53.9587 38.9218 56.2893 35.0935 58.623 31.2642L42.7982 31.9735L42.7794 31.9745L42.7586 31.9764H42.7477L42.7388 31.9774H42.7279H42.7181H42.7082H42.6884H42.6775L42.5984 31.9725L42.5914 31.9715L42.5786 31.9705L42.5726 31.9695L42.539 31.9646L42.535 31.9636L42.5172 31.9606L42.5162 31.9586L42.4974 31.9566L42.4965 31.9547L42.4242 31.9388L42.4183 31.9378L42.4055 31.9329L42.3985 31.9319L42.3886 31.927L42.3787 31.925L42.3698 31.921L42.359 31.9181L42.354 31.9151L42.3184 31.9032L42.3174 31.9022L42.2838 31.8874H42.2818L42.2244 31.8587L42.2175 31.8548L42.168 31.828L27.6975 23.011L22.0035 19.5408L19.7104 23.3068C30.3487 29.7873 40.9859 36.2697 51.6251 42.7512Z" fill="#9B59B6"/>
<path d="M42.9726 29.912C50.2069 29.5895 57.4402 29.265 64.6735 28.9396L66.7133 25.593L24.8657 0.0944824L16.5186 13.7944C25.3356 19.1679 34.1546 24.5394 42.9726 29.912ZM31.7122 9.94626C31.2285 9.65048 31.0761 9.01935 31.3699 8.53562C31.0741 9.01935 30.442 9.17268 29.9593 8.8769L25.4029 6.1021C24.2524 5.39974 25.3227 3.64583 26.4732 4.34918L31.0286 7.12398C31.5124 7.41976 31.6657 8.05089 31.3709 8.53463C31.6667 8.05089 32.2988 7.89756 32.7825 8.19334L41.4453 13.4709C42.5977 14.1742 41.5274 15.9272 40.3759 15.2248L31.7122 9.94626ZM23.9754 8.44856C22.8249 7.74621 23.8933 5.9923 25.0458 6.69564L40.0178 15.8164C41.1683 16.5197 40.0989 18.2717 38.9475 17.5693L23.9754 8.44856Z" fill="#9B59B6"/>
<path d="M69.1091 35.9423L64.9296 33.396C62.7038 37.0384 60.482 40.6866 58.2651 44.334L62.4446 46.8812L69.1091 35.9423Z" fill="#9B59B6"/>
<path d="M1.71632 39.2097H0V60.0944H1.71632C3.36933 60.0944 4.72557 58.7382 4.72557 57.0852C4.72557 52.1301 4.72557 47.174 4.72557 42.219C4.72557 40.566 3.36933 39.2097 1.71632 39.2097Z" fill="#9B59B6"/>
<path d="M27.9802 43.1707C24.6386 43.1707 21.8529 45.8149 21.6719 49.0744C21.6719 52.5704 23.8195 55.8141 27.9802 55.8141C31.4732 55.8141 34.3034 52.9888 34.3034 49.4928C34.3034 45.9732 31.4574 43.1707 27.9802 43.1707Z" fill="#9B59B6"/>
<path d="M19.9865 52.0164C19.6719 51.0152 19.568 50.0854 19.6115 49.0744C19.6115 48.5135 19.751 47.8082 19.8925 47.2898H6.78613V52.0164H19.9865Z" fill="#9B59B6"/>
<path d="M30.4062 41.4682C31.9504 41.9331 33.2058 42.7848 34.2445 43.9274L34.2494 43.9323L34.2672 43.9561L34.292 43.9828L34.3157 44.0065L34.3167 44.0105L34.3642 44.0639L38.5536 37.1917L34.5126 34.7285V34.7295L30.4062 41.4682Z" fill="#9B59B6"/>
<path d="M60.192 32.6373L55.418 40.4731L57.4568 41.7145L62.2308 33.8778L60.192 32.6373Z" fill="#9B59B6"/>
</svg>
