<svg width="60" height="60" viewBox="0 0 60 60" fill="none" xmlns="http://www.w3.org/2000/svg">
<path d="M29.8823 21.2389C28.4873 23.0314 25.9143 23.3523 24.1217 21.9573L13.3235 13.5538C11.531 12.1588 11.2101 9.58575 12.605 7.79323C14 6.00072 16.5731 5.67982 18.3656 7.0748L29.1639 15.4783C30.9564 16.8733 31.2773 19.4463 29.8823 21.2389Z" fill="#18FFFF"/>
<path d="M39.9663 8.28163L37.4453 11.5211L34.2058 9.00006C32.4133 7.60508 32.0924 5.03203 33.4874 3.23952C34.8823 1.44701 37.4554 1.12611 39.2479 2.52109C41.0404 3.91608 41.3613 6.48912 39.9663 8.28163Z" fill="#18FFFF"/>
<path d="M30.1177 38.76C31.5127 36.9675 34.0858 36.6466 35.8783 38.0416L46.6766 46.4451C48.4691 47.8401 48.79 50.4131 47.395 52.2057C46 53.9982 43.427 54.3191 41.6344 52.9241L30.8362 44.5206C29.0436 43.1256 28.7228 40.5525 30.1177 38.76Z" fill="#18FFFF"/>
<path d="M20.0333 51.7185L22.5543 48.479L25.7938 51.0001C27.5863 52.3951 27.9072 54.9681 26.5122 56.7606C25.1172 58.5532 22.5442 58.874 20.7517 57.4791C18.9592 56.0841 18.6383 53.511 20.0333 51.7185Z" fill="#18FFFF"/>
<path d="M38.7605 29.8824C36.968 28.4874 36.6471 25.9144 38.0421 24.1218L46.4456 13.3236C47.8406 11.5311 50.4136 11.2102 52.2061 12.6051C53.9986 14.0001 54.3195 16.5732 52.9245 18.3657L44.521 29.164C43.126 30.9565 40.553 31.2774 38.7605 29.8824Z" fill="#18FFFF"/>
<path d="M50.9996 34.2063L48.4785 37.4458L51.718 39.9669C53.5105 41.3618 56.0836 41.0409 57.4785 39.2484C58.8735 37.4559 58.5526 34.8829 56.7601 33.4879C54.9676 32.0929 52.3946 32.4138 50.9996 34.2063Z" fill="#18FFFF"/>
<path d="M21.2393 30.1173C19.4468 28.7224 16.8738 29.0433 15.4788 30.8358L7.07526 41.6341C5.68027 43.4266 6.00117 45.9996 7.79368 47.3946C9.5862 48.7896 12.1592 48.4687 13.5542 46.6762L21.9577 35.8779C23.3527 34.0854 23.0318 31.5123 21.2393 30.1173Z" fill="#18FFFF"/>
<path d="M9.00002 25.7938L11.5211 22.5544L8.2816 20.0333C6.48908 18.6383 3.91604 18.9592 2.52106 20.7517C1.12607 22.5442 1.44697 25.1173 3.23948 26.5123C5.032 27.9073 7.60504 27.5864 9.00002 25.7938Z" fill="#18FFFF"/>
</svg>
