<svg width="48" height="61" viewBox="0 0 48 61" fill="none" xmlns="http://www.w3.org/2000/svg">
<path d="M47.0005 10.0315L40.6255 16.7815V6.15649H45.5005C47.6255 6.15649 48.5005 8.65649 47.0005 10.0315Z" fill="#E74C3C"/>
<path d="M47.0005 27.4064L40.6255 34.2814V23.6564H45.5005C47.6255 23.5314 48.5005 26.1564 47.0005 27.4064Z" fill="#E74C3C"/>
<path d="M47.0005 45.7814L40.6255 52.5314V41.9064H45.5005C47.6255 41.9064 48.5005 44.4064 47.0005 45.7814Z" fill="#E74C3C"/>
<path d="M7.12565 6.15649V16.7815L0.750652 10.0315C-0.749348 8.65649 0.125652 6.15649 2.25065 6.15649H7.12565Z" fill="#E74C3C"/>
<path d="M7.12565 23.5314V34.1564L0.750652 27.2814C-0.749348 25.9064 0.125652 23.4064 2.25065 23.4064H7.12565V23.5314Z" fill="#E74C3C"/>
<path d="M7.12565 41.9064V52.5314L0.750652 45.7814C-0.749348 44.4064 0.125652 41.9064 2.25065 41.9064H7.12565Z" fill="#E74C3C"/>
<path d="M33.2505 0.0314941H14.5005C11.1255 0.0314941 8.37549 2.78149 8.37549 6.15649V53.9065C8.37549 57.2815 11.1255 60.0315 14.5005 60.0315H33.2505C36.6255 60.0315 39.3755 57.2815 39.3755 53.9065V6.15649C39.3755 2.78149 36.6255 0.0314941 33.2505 0.0314941ZM23.8755 56.7815C19.8755 56.7815 16.6255 53.5315 16.6255 49.5315C16.6255 45.5315 19.8755 42.2815 23.8755 42.2815C27.8755 42.2815 31.1255 45.5315 31.1255 49.5315C31.1255 53.5315 27.8755 56.7815 23.8755 56.7815ZM23.8755 38.4065C19.8755 38.4065 16.6255 35.1565 16.6255 31.1565C16.6255 27.1565 19.8755 23.9065 23.8755 23.9065C27.8755 23.9065 31.1255 27.1565 31.1255 31.1565C31.1255 35.1565 27.8755 38.4065 23.8755 38.4065ZM23.8755 20.1565C19.8755 20.1565 16.6255 16.9065 16.6255 12.9065C16.6255 8.90649 19.8755 5.65649 23.8755 5.65649C27.8755 5.65649 31.1255 8.90649 31.1255 12.9065C31.1255 16.9065 27.8755 20.1565 23.8755 20.1565Z" fill="#E74C3C"/>
<path d="M21.8778 11.2775C22.7076 10.4477 22.9451 9.33962 22.4081 8.80266C21.8711 8.26569 20.7631 8.50313 19.9333 9.33298C19.1034 10.1628 18.866 11.2709 19.4029 11.8078C19.9399 12.3448 21.0479 12.1074 21.8778 11.2775Z" fill="#E74C3C"/>
<path d="M21.8602 29.9095C22.6901 29.0796 22.9275 27.9716 22.3905 27.4346C21.8536 26.8977 20.7455 27.1351 19.9157 27.9649C19.0858 28.7948 18.8484 29.9028 19.3853 30.4398C19.9223 30.9768 21.0303 30.7393 21.8602 29.9095Z" fill="#E74C3C"/>
<path d="M21.8426 48.5414C22.6725 47.7116 22.9099 46.6035 22.3729 46.0666C21.836 45.5296 20.728 45.767 19.8981 46.5969C19.0682 47.4268 18.8308 48.5348 19.3678 49.0717C19.9047 49.6087 21.0128 49.3713 21.8426 48.5414Z" fill="#E74C3C"/>
</svg>
