<svg width="63" height="60" viewBox="0 0 63 60" fill="none" xmlns="http://www.w3.org/2000/svg">
<path d="M42.2757 49.3849C45.1475 49.0045 48.0055 46.5445 48.0055 43.5445V21.6127C48.0055 18.5161 44.8365 15.6751 40.531 15.6751L31.3571 15.6697L22.1124 15.6751C17.8083 15.6751 14.6386 18.5167 14.6386 21.6127V43.5439C14.6386 46.5439 17.4973 49.0045 20.3677 49.3843L11.7573 60.0001H16.7242L22.8833 52.5787H31.3148H31.3213H31.3294H39.7587L45.9184 60.0001H50.8868L42.2757 49.3849ZM26.4705 17.9323C26.4705 17.3941 27.0399 16.9417 27.6961 16.9417H31.3148H31.3213H31.3294H34.948C35.6028 16.9417 36.1722 17.3935 36.1722 17.9323V19.6759C36.1722 20.2135 35.6342 20.6767 34.948 20.6767H31.3294H31.3213H31.3148H27.6961C27.0092 20.6767 26.4705 20.2135 26.4705 19.6759V17.9323ZM21.9569 46.1863C20.1472 46.1863 18.6792 44.9797 18.6792 43.4935C18.6792 42.0061 20.1472 40.7995 21.9569 40.7995C23.7666 40.7995 25.2331 42.0061 25.2331 43.4935C25.2331 44.9797 23.7666 46.1863 21.9569 46.1863ZM31.3213 31.9375H31.3148H22.3613C20.3042 31.9375 18.6186 30.7765 18.6376 28.8799V24.9319C18.6376 23.2909 19.9297 21.8587 22.3613 21.8587H31.3148H31.3301H40.2821C42.7144 21.8587 44.0065 23.2909 44.0065 24.9319V28.8799C44.0248 30.7771 42.3414 31.9375 40.2821 31.9375H31.3294H31.3213ZM37.3343 43.4929C37.3343 42.0055 38.8009 40.7989 40.6106 40.7989C42.4202 40.7989 43.8868 42.0055 43.8868 43.4929C43.8868 44.9803 42.4202 46.1857 40.6106 46.1857C38.8009 46.1857 37.3343 44.9797 37.3343 43.4929Z" fill="#FFFF00"/>
<path d="M28.5713 15.0348C29.7146 15.0348 30.6415 14.273 30.6415 13.3332C30.6415 12.3934 29.7146 11.6316 28.5713 11.6316C27.4279 11.6316 26.501 12.3934 26.501 13.3332C26.501 14.273 27.4279 15.0348 28.5713 15.0348Z" fill="#FFFF00"/>
<path d="M34.0717 15.0348C35.2151 15.0348 36.142 14.273 36.142 13.3332C36.142 12.3934 35.2151 11.6316 34.0717 11.6316C32.9284 11.6316 32.0015 12.3934 32.0015 13.3332C32.0015 14.273 32.9284 15.0348 34.0717 15.0348Z" fill="#FFFF00"/>
<path d="M53.4689 7.5402C47.5544 2.6778 39.6879 0 31.3214 0C22.9548 0 15.0891 2.6778 9.17391 7.5402C3.25726 12.4026 0 18.8676 0 25.7436V53.4282H5.986V25.7436C5.986 14.2614 17.3514 4.9194 31.3221 4.9194C45.2929 4.9194 56.6582 14.2614 56.6582 25.7436V53.4282H62.6435V25.7436C62.6428 18.867 59.3862 12.4026 53.4689 7.5402Z" fill="#FFFF00"/>
</svg>
