<svg width="63" height="61" viewBox="0 0 63 61" fill="none" xmlns="http://www.w3.org/2000/svg">
<path d="M15.5982 0.031503C14.9319 0.0290995 14.3911 0.569774 14.3936 1.23609V6.03795C14.396 6.70059 14.9355 7.23562 15.5982 7.23312H39.593C40.2557 7.23553 40.7949 6.70059 40.7976 6.03795V1.23609C40.8 0.569774 40.2593 0.0289635 39.593 0.031503H15.5982ZM1.19518 9.63274C0.536193 9.63515 0.00263968 10.1689 0 10.8279V34.8321C0.00239973 35.4911 0.536193 36.0247 1.19518 36.0273H5.99696C6.65595 36.0249 7.1895 35.4911 7.19213 34.8321V10.8279C7.18949 10.1689 6.65593 9.63542 5.99696 9.63274H1.19518ZM23.9949 9.63274V12.0349H31.1964V9.63274H23.9949ZM15.5982 15.6298V30.0327C15.6006 30.6917 16.1344 31.2253 16.7934 31.2279H38.3979C39.0569 31.2255 39.5904 30.6917 39.593 30.0327V15.6298C39.5906 14.9708 39.0569 14.4373 38.3979 14.4346H16.7359C16.0647 14.4963 15.5976 15.0129 15.5982 15.6298ZM9.59185 16.8342V28.8258H13.1985V16.8342H9.59185ZM41.9928 16.8342V28.8258H45.5877C46.9379 28.8258 47.9897 29.8777 47.9897 31.2279H59.9907V30.0327C59.9907 22.7415 54.0857 16.8342 46.7945 16.8342H41.9928ZM46.7945 33.6277C46.1273 33.624 45.5851 34.1649 45.5877 34.8321V39.634C45.59 40.2976 46.131 40.833 46.7945 40.8292H61.1858C61.8485 40.8316 62.3877 40.2966 62.3904 39.634V34.8321C62.3928 34.1658 61.8521 33.6251 61.1858 33.6277H46.7945ZM55.1889 43.2289C54.8239 43.2293 54.4789 43.3958 54.2515 43.681C54.2515 43.681 53.0151 45.2301 51.7721 47.2501C50.529 49.27 49.1943 51.692 49.1943 54.025C49.1942 57.3242 51.8898 60.0315 55.1889 60.0315C58.488 60.0315 61.1858 57.3242 61.1858 54.025C61.1858 51.692 59.8511 49.27 58.608 47.2501C57.365 45.2301 56.1286 43.681 56.1286 43.681C55.9007 43.3949 55.5547 43.2285 55.1889 43.2289Z" fill="#40C4FF"/>
</svg>
