<svg width="60" height="61" viewBox="0 0 60 61" fill="none" xmlns="http://www.w3.org/2000/svg">
<path d="M30 0.0629883C13.452 0.0629883 0 13.515 0 30.063C0 46.599 13.452 60.063 30 60.063C46.548 60.063 60 46.611 60 30.063C60 13.515 46.548 0.0629883 30 0.0629883ZM50.64 45.759C47.724 44.043 44.076 42.699 39.96 41.847C29.556 45.207 29.544 54.291 28.944 55.971C25.8 55.851 22.812 55.155 20.052 54.015C20.544 52.935 25.572 43.911 36.708 41.307C35.088 41.091 33.408 40.959 31.692 40.899V36.519H39.024C39.6 36.519 40.128 36.171 40.344 35.631C40.56 35.091 40.44 34.479 40.02 34.071C38.376 32.463 36.9 30.639 35.592 28.611H36.96C37.536 28.611 38.064 28.263 38.28 27.723C38.496 27.183 38.376 26.571 37.956 26.163C36.516 24.747 35.232 23.103 34.128 21.279H35.232C35.808 21.279 36.336 20.931 36.552 20.391C36.768 19.851 36.648 19.239 36.228 18.831C34.056 16.719 32.376 13.875 31.368 10.635L31.356 10.587C31.176 9.98699 30.624 9.57899 29.988 9.57899C29.364 9.57899 28.812 9.98699 28.62 10.587L28.608 10.635C27.6 13.887 25.92 16.719 23.748 18.831C23.328 19.239 23.208 19.851 23.424 20.391C23.64 20.931 24.168 21.279 24.744 21.279H25.848C24.756 23.115 23.472 24.759 22.02 26.163C21.6 26.571 21.48 27.183 21.696 27.723C21.912 28.263 22.44 28.611 23.016 28.611H24.384C23.088 30.627 21.6 32.463 19.956 34.071C19.536 34.479 19.416 35.091 19.632 35.631C19.848 36.171 20.376 36.519 20.952 36.519H28.284V40.899C20.796 41.139 14.112 42.963 9.348 45.759C6.036 41.403 4.056 35.955 4.056 30.063C4.056 15.759 15.696 4.11899 30 4.11899C44.304 4.11899 55.944 15.759 55.944 30.063C55.944 35.955 53.964 41.403 50.64 45.759Z" fill="#2ECC71"/>
</svg>
